<?xml version="1.0" encoding="utf-8" standalone="no"?>
<!DOCTYPE svg PUBLIC "-//W3C//DTD SVG 1.1//EN"
  "http://www.w3.org/Graphics/SVG/1.1/DTD/svg11.dtd">
<svg xmlns:xlink="http://www.w3.org/1999/xlink" width="517.305625pt" height="270.315469pt" viewBox="0 0 517.305625 270.315469" xmlns="http://www.w3.org/2000/svg" version="1.1">
 <metadata>
  <rdf:RDF xmlns:dc="http://purl.org/dc/elements/1.1/" xmlns:cc="http://creativecommons.org/ns#" xmlns:rdf="http://www.w3.org/1999/02/22-rdf-syntax-ns#">
   <cc:Work>
    <dc:type rdf:resource="http://purl.org/dc/dcmitype/StillImage"/>
    <dc:date>2025-12-05T13:17:03.490136</dc:date>
    <dc:format>image/svg+xml</dc:format>
    <dc:creator>
     <cc:Agent>
      <dc:title>Matplotlib v3.10.8, https://matplotlib.org/</dc:title>
     </cc:Agent>
    </dc:creator>
   </cc:Work>
  </rdf:RDF>
 </metadata>
 <defs>
  <style type="text/css">*{stroke-linejoin: round; stroke-linecap: butt}</style>
 </defs>
 <g id="figure_1">
  <g id="patch_1">
   <path d="M 0 270.315469 
L 517.305625 270.315469 
L 517.305625 0 
L 0 0 
L 0 270.315469 
z
" style="fill: none"/>
  </g>
  <g id="axes_1">
   <g id="patch_2">
    <path d="M 40.603125 232.759219 
L 503.743125 232.759219 
L 503.743125 10.999219 
L 40.603125 10.999219 
L 40.603125 232.759219 
z
" style="fill: none"/>
   </g>
   <g id="matplotlib.axis_1">
    <g id="xtick_1">
     <g id="line2d_1">
      <defs>
       <path id="m18517b7a9e" d="M 0 0 
L 0 3.5 
" style="stroke: #000000; stroke-width: 0.8"/>
      </defs>
      <g>
       <use xlink:href="#m18517b7a9e" x="40.603125" y="232.759219" style="stroke: #000000; stroke-width: 0.8"/>
      </g>
     </g>
     <g id="text_1">
      <!-- 0 -->
      <g transform="translate(37.421875 247.357656) scale(0.1 -0.1)">
       <defs>
        <path id="DejaVuSans-30" d="M 2034 4250 
Q 1547 4250 1301 3770 
Q 1056 3291 1056 2328 
Q 1056 1369 1301 889 
Q 1547 409 2034 409 
Q 2525 409 2770 889 
Q 3016 1369 3016 2328 
Q 3016 3291 2770 3770 
Q 2525 4250 2034 4250 
z
M 2034 4750 
Q 2819 4750 3233 4129 
Q 3647 3509 3647 2328 
Q 3647 1150 3233 529 
Q 2819 -91 2034 -91 
Q 1250 -91 836 529 
Q 422 1150 422 2328 
Q 422 3509 836 4129 
Q 1250 4750 2034 4750 
z
" transform="scale(0.015625)"/>
       </defs>
       <use xlink:href="#DejaVuSans-30"/>
      </g>
     </g>
    </g>
    <g id="xtick_2">
     <g id="line2d_2">
      <g>
       <use xlink:href="#m18517b7a9e" x="92.063125" y="232.759219" style="stroke: #000000; stroke-width: 0.8"/>
      </g>
     </g>
     <g id="text_2">
      <!-- 10 -->
      <g transform="translate(85.700625 247.357656) scale(0.1 -0.1)">
       <defs>
        <path id="DejaVuSans-31" d="M 794 531 
L 1825 531 
L 1825 4091 
L 703 3866 
L 703 4441 
L 1819 4666 
L 2450 4666 
L 2450 531 
L 3481 531 
L 3481 0 
L 794 0 
L 794 531 
z
" transform="scale(0.015625)"/>
       </defs>
       <use xlink:href="#DejaVuSans-31"/>
       <use xlink:href="#DejaVuSans-30" transform="translate(63.623047 0)"/>
      </g>
     </g>
    </g>
    <g id="xtick_3">
     <g id="line2d_3">
      <g>
       <use xlink:href="#m18517b7a9e" x="143.523125" y="232.759219" style="stroke: #000000; stroke-width: 0.8"/>
      </g>
     </g>
     <g id="text_3">
      <!-- 20 -->
      <g transform="translate(137.160625 247.357656) scale(0.1 -0.1)">
       <defs>
        <path id="DejaVuSans-32" d="M 1228 531 
L 3431 531 
L 3431 0 
L 469 0 
L 469 531 
Q 828 903 1448 1529 
Q 2069 2156 2228 2338 
Q 2531 2678 2651 2914 
Q 2772 3150 2772 3378 
Q 2772 3750 2511 3984 
Q 2250 4219 1831 4219 
Q 1534 4219 1204 4116 
Q 875 4013 500 3803 
L 500 4441 
Q 881 4594 1212 4672 
Q 1544 4750 1819 4750 
Q 2544 4750 2975 4387 
Q 3406 4025 3406 3419 
Q 3406 3131 3298 2873 
Q 3191 2616 2906 2266 
Q 2828 2175 2409 1742 
Q 1991 1309 1228 531 
z
" transform="scale(0.015625)"/>
       </defs>
       <use xlink:href="#DejaVuSans-32"/>
       <use xlink:href="#DejaVuSans-30" transform="translate(63.623047 0)"/>
      </g>
     </g>
    </g>
    <g id="xtick_4">
     <g id="line2d_4">
      <g>
       <use xlink:href="#m18517b7a9e" x="194.983125" y="232.759219" style="stroke: #000000; stroke-width: 0.8"/>
      </g>
     </g>
     <g id="text_4">
      <!-- 30 -->
      <g transform="translate(188.620625 247.357656) scale(0.1 -0.1)">
       <defs>
        <path id="DejaVuSans-33" d="M 2597 2516 
Q 3050 2419 3304 2112 
Q 3559 1806 3559 1356 
Q 3559 666 3084 287 
Q 2609 -91 1734 -91 
Q 1441 -91 1130 -33 
Q 819 25 488 141 
L 488 750 
Q 750 597 1062 519 
Q 1375 441 1716 441 
Q 2309 441 2620 675 
Q 2931 909 2931 1356 
Q 2931 1769 2642 2001 
Q 2353 2234 1838 2234 
L 1294 2234 
L 1294 2753 
L 1863 2753 
Q 2328 2753 2575 2939 
Q 2822 3125 2822 3475 
Q 2822 3834 2567 4026 
Q 2313 4219 1838 4219 
Q 1578 4219 1281 4162 
Q 984 4106 628 3988 
L 628 4550 
Q 988 4650 1302 4700 
Q 1616 4750 1894 4750 
Q 2613 4750 3031 4423 
Q 3450 4097 3450 3541 
Q 3450 3153 3228 2886 
Q 3006 2619 2597 2516 
z
" transform="scale(0.015625)"/>
       </defs>
       <use xlink:href="#DejaVuSans-33"/>
       <use xlink:href="#DejaVuSans-30" transform="translate(63.623047 0)"/>
      </g>
     </g>
    </g>
    <g id="xtick_5">
     <g id="line2d_5">
      <g>
       <use xlink:href="#m18517b7a9e" x="246.443125" y="232.759219" style="stroke: #000000; stroke-width: 0.8"/>
      </g>
     </g>
     <g id="text_5">
      <!-- 40 -->
      <g transform="translate(240.080625 247.357656) scale(0.1 -0.1)">
       <defs>
        <path id="DejaVuSans-34" d="M 2419 4116 
L 825 1625 
L 2419 1625 
L 2419 4116 
z
M 2253 4666 
L 3047 4666 
L 3047 1625 
L 3713 1625 
L 3713 1100 
L 3047 1100 
L 3047 0 
L 2419 0 
L 2419 1100 
L 313 1100 
L 313 1709 
L 2253 4666 
z
" transform="scale(0.015625)"/>
       </defs>
       <use xlink:href="#DejaVuSans-34"/>
       <use xlink:href="#DejaVuSans-30" transform="translate(63.623047 0)"/>
      </g>
     </g>
    </g>
    <g id="xtick_6">
     <g id="line2d_6">
      <g>
       <use xlink:href="#m18517b7a9e" x="297.903125" y="232.759219" style="stroke: #000000; stroke-width: 0.8"/>
      </g>
     </g>
     <g id="text_6">
      <!-- 50 -->
      <g transform="translate(291.540625 247.357656) scale(0.1 -0.1)">
       <defs>
        <path id="DejaVuSans-35" d="M 691 4666 
L 3169 4666 
L 3169 4134 
L 1269 4134 
L 1269 2991 
Q 1406 3038 1543 3061 
Q 1681 3084 1819 3084 
Q 2600 3084 3056 2656 
Q 3513 2228 3513 1497 
Q 3513 744 3044 326 
Q 2575 -91 1722 -91 
Q 1428 -91 1123 -41 
Q 819 9 494 109 
L 494 744 
Q 775 591 1075 516 
Q 1375 441 1709 441 
Q 2250 441 2565 725 
Q 2881 1009 2881 1497 
Q 2881 1984 2565 2268 
Q 2250 2553 1709 2553 
Q 1456 2553 1204 2497 
Q 953 2441 691 2322 
L 691 4666 
z
" transform="scale(0.015625)"/>
       </defs>
       <use xlink:href="#DejaVuSans-35"/>
       <use xlink:href="#DejaVuSans-30" transform="translate(63.623047 0)"/>
      </g>
     </g>
    </g>
    <g id="xtick_7">
     <g id="line2d_7">
      <g>
       <use xlink:href="#m18517b7a9e" x="349.363125" y="232.759219" style="stroke: #000000; stroke-width: 0.8"/>
      </g>
     </g>
     <g id="text_7">
      <!-- 60 -->
      <g transform="translate(343.000625 247.357656) scale(0.1 -0.1)">
       <defs>
        <path id="DejaVuSans-36" d="M 2113 2584 
Q 1688 2584 1439 2293 
Q 1191 2003 1191 1497 
Q 1191 994 1439 701 
Q 1688 409 2113 409 
Q 2538 409 2786 701 
Q 3034 994 3034 1497 
Q 3034 2003 2786 2293 
Q 2538 2584 2113 2584 
z
M 3366 4563 
L 3366 3988 
Q 3128 4100 2886 4159 
Q 2644 4219 2406 4219 
Q 1781 4219 1451 3797 
Q 1122 3375 1075 2522 
Q 1259 2794 1537 2939 
Q 1816 3084 2150 3084 
Q 2853 3084 3261 2657 
Q 3669 2231 3669 1497 
Q 3669 778 3244 343 
Q 2819 -91 2113 -91 
Q 1303 -91 875 529 
Q 447 1150 447 2328 
Q 447 3434 972 4092 
Q 1497 4750 2381 4750 
Q 2619 4750 2861 4703 
Q 3103 4656 3366 4563 
z
" transform="scale(0.015625)"/>
       </defs>
       <use xlink:href="#DejaVuSans-36"/>
       <use xlink:href="#DejaVuSans-30" transform="translate(63.623047 0)"/>
      </g>
     </g>
    </g>
    <g id="xtick_8">
     <g id="line2d_8">
      <g>
       <use xlink:href="#m18517b7a9e" x="400.823125" y="232.759219" style="stroke: #000000; stroke-width: 0.8"/>
      </g>
     </g>
     <g id="text_8">
      <!-- 70 -->
      <g transform="translate(394.460625 247.357656) scale(0.1 -0.1)">
       <defs>
        <path id="DejaVuSans-37" d="M 525 4666 
L 3525 4666 
L 3525 4397 
L 1831 0 
L 1172 0 
L 2766 4134 
L 525 4134 
L 525 4666 
z
" transform="scale(0.015625)"/>
       </defs>
       <use xlink:href="#DejaVuSans-37"/>
       <use xlink:href="#DejaVuSans-30" transform="translate(63.623047 0)"/>
      </g>
     </g>
    </g>
    <g id="xtick_9">
     <g id="line2d_9">
      <g>
       <use xlink:href="#m18517b7a9e" x="452.283125" y="232.759219" style="stroke: #000000; stroke-width: 0.8"/>
      </g>
     </g>
     <g id="text_9">
      <!-- 80 -->
      <g transform="translate(445.920625 247.357656) scale(0.1 -0.1)">
       <defs>
        <path id="DejaVuSans-38" d="M 2034 2216 
Q 1584 2216 1326 1975 
Q 1069 1734 1069 1313 
Q 1069 891 1326 650 
Q 1584 409 2034 409 
Q 2484 409 2743 651 
Q 3003 894 3003 1313 
Q 3003 1734 2745 1975 
Q 2488 2216 2034 2216 
z
M 1403 2484 
Q 997 2584 770 2862 
Q 544 3141 544 3541 
Q 544 4100 942 4425 
Q 1341 4750 2034 4750 
Q 2731 4750 3128 4425 
Q 3525 4100 3525 3541 
Q 3525 3141 3298 2862 
Q 3072 2584 2669 2484 
Q 3125 2378 3379 2068 
Q 3634 1759 3634 1313 
Q 3634 634 3220 271 
Q 2806 -91 2034 -91 
Q 1263 -91 848 271 
Q 434 634 434 1313 
Q 434 1759 690 2068 
Q 947 2378 1403 2484 
z
M 1172 3481 
Q 1172 3119 1398 2916 
Q 1625 2713 2034 2713 
Q 2441 2713 2670 2916 
Q 2900 3119 2900 3481 
Q 2900 3844 2670 4047 
Q 2441 4250 2034 4250 
Q 1625 4250 1398 4047 
Q 1172 3844 1172 3481 
z
" transform="scale(0.015625)"/>
       </defs>
       <use xlink:href="#DejaVuSans-38"/>
       <use xlink:href="#DejaVuSans-30" transform="translate(63.623047 0)"/>
      </g>
     </g>
    </g>
    <g id="xtick_10">
     <g id="line2d_10">
      <g>
       <use xlink:href="#m18517b7a9e" x="503.743125" y="232.759219" style="stroke: #000000; stroke-width: 0.8"/>
      </g>
     </g>
     <g id="text_10">
      <!-- 90 -->
      <g transform="translate(497.380625 247.357656) scale(0.1 -0.1)">
       <defs>
        <path id="DejaVuSans-39" d="M 703 97 
L 703 672 
Q 941 559 1184 500 
Q 1428 441 1663 441 
Q 2288 441 2617 861 
Q 2947 1281 2994 2138 
Q 2813 1869 2534 1725 
Q 2256 1581 1919 1581 
Q 1219 1581 811 2004 
Q 403 2428 403 3163 
Q 403 3881 828 4315 
Q 1253 4750 1959 4750 
Q 2769 4750 3195 4129 
Q 3622 3509 3622 2328 
Q 3622 1225 3098 567 
Q 2575 -91 1691 -91 
Q 1453 -91 1209 -44 
Q 966 3 703 97 
z
M 1959 2075 
Q 2384 2075 2632 2365 
Q 2881 2656 2881 3163 
Q 2881 3666 2632 3958 
Q 2384 4250 1959 4250 
Q 1534 4250 1286 3958 
Q 1038 3666 1038 3163 
Q 1038 2656 1286 2365 
Q 1534 2075 1959 2075 
z
" transform="scale(0.015625)"/>
       </defs>
       <use xlink:href="#DejaVuSans-39"/>
       <use xlink:href="#DejaVuSans-30" transform="translate(63.623047 0)"/>
      </g>
     </g>
    </g>
    <g id="text_11">
     <!-- latitude ($\degree$N) -->
     <g transform="translate(241.223125 261.035781) scale(0.1 -0.1)">
      <defs>
       <path id="DejaVuSans-6c" d="M 603 4863 
L 1178 4863 
L 1178 0 
L 603 0 
L 603 4863 
z
" transform="scale(0.015625)"/>
       <path id="DejaVuSans-61" d="M 2194 1759 
Q 1497 1759 1228 1600 
Q 959 1441 959 1056 
Q 959 750 1161 570 
Q 1363 391 1709 391 
Q 2188 391 2477 730 
Q 2766 1069 2766 1631 
L 2766 1759 
L 2194 1759 
z
M 3341 1997 
L 3341 0 
L 2766 0 
L 2766 531 
Q 2569 213 2275 61 
Q 1981 -91 1556 -91 
Q 1019 -91 701 211 
Q 384 513 384 1019 
Q 384 1609 779 1909 
Q 1175 2209 1959 2209 
L 2766 2209 
L 2766 2266 
Q 2766 2663 2505 2880 
Q 2244 3097 1772 3097 
Q 1472 3097 1187 3025 
Q 903 2953 641 2809 
L 641 3341 
Q 956 3463 1253 3523 
Q 1550 3584 1831 3584 
Q 2591 3584 2966 3190 
Q 3341 2797 3341 1997 
z
" transform="scale(0.015625)"/>
       <path id="DejaVuSans-74" d="M 1172 4494 
L 1172 3500 
L 2356 3500 
L 2356 3053 
L 1172 3053 
L 1172 1153 
Q 1172 725 1289 603 
Q 1406 481 1766 481 
L 2356 481 
L 2356 0 
L 1766 0 
Q 1100 0 847 248 
Q 594 497 594 1153 
L 594 3053 
L 172 3053 
L 172 3500 
L 594 3500 
L 594 4494 
L 1172 4494 
z
" transform="scale(0.015625)"/>
       <path id="DejaVuSans-69" d="M 603 3500 
L 1178 3500 
L 1178 0 
L 603 0 
L 603 3500 
z
M 603 4863 
L 1178 4863 
L 1178 4134 
L 603 4134 
L 603 4863 
z
" transform="scale(0.015625)"/>
       <path id="DejaVuSans-75" d="M 544 1381 
L 544 3500 
L 1119 3500 
L 1119 1403 
Q 1119 906 1312 657 
Q 1506 409 1894 409 
Q 2359 409 2629 706 
Q 2900 1003 2900 1516 
L 2900 3500 
L 3475 3500 
L 3475 0 
L 2900 0 
L 2900 538 
Q 2691 219 2414 64 
Q 2138 -91 1772 -91 
Q 1169 -91 856 284 
Q 544 659 544 1381 
z
M 1991 3584 
L 1991 3584 
z
" transform="scale(0.015625)"/>
       <path id="DejaVuSans-64" d="M 2906 2969 
L 2906 4863 
L 3481 4863 
L 3481 0 
L 2906 0 
L 2906 525 
Q 2725 213 2448 61 
Q 2172 -91 1784 -91 
Q 1150 -91 751 415 
Q 353 922 353 1747 
Q 353 2572 751 3078 
Q 1150 3584 1784 3584 
Q 2172 3584 2448 3432 
Q 2725 3281 2906 2969 
z
M 947 1747 
Q 947 1113 1208 752 
Q 1469 391 1925 391 
Q 2381 391 2643 752 
Q 2906 1113 2906 1747 
Q 2906 2381 2643 2742 
Q 2381 3103 1925 3103 
Q 1469 3103 1208 2742 
Q 947 2381 947 1747 
z
" transform="scale(0.015625)"/>
       <path id="DejaVuSans-65" d="M 3597 1894 
L 3597 1613 
L 953 1613 
Q 991 1019 1311 708 
Q 1631 397 2203 397 
Q 2534 397 2845 478 
Q 3156 559 3463 722 
L 3463 178 
Q 3153 47 2828 -22 
Q 2503 -91 2169 -91 
Q 1331 -91 842 396 
Q 353 884 353 1716 
Q 353 2575 817 3079 
Q 1281 3584 2069 3584 
Q 2775 3584 3186 3129 
Q 3597 2675 3597 1894 
z
M 3022 2063 
Q 3016 2534 2758 2815 
Q 2500 3097 2075 3097 
Q 1594 3097 1305 2825 
Q 1016 2553 972 2059 
L 3022 2063 
z
" transform="scale(0.015625)"/>
       <path id="DejaVuSans-20" transform="scale(0.015625)"/>
       <path id="DejaVuSans-28" d="M 1984 4856 
Q 1566 4138 1362 3434 
Q 1159 2731 1159 2009 
Q 1159 1288 1364 580 
Q 1569 -128 1984 -844 
L 1484 -844 
Q 1016 -109 783 600 
Q 550 1309 550 2009 
Q 550 2706 781 3412 
Q 1013 4119 1484 4856 
L 1984 4856 
z
" transform="scale(0.015625)"/>
       <path id="DejaVuSans-b0" d="M 1600 4347 
Q 1350 4347 1178 4173 
Q 1006 4000 1006 3750 
Q 1006 3503 1178 3333 
Q 1350 3163 1600 3163 
Q 1850 3163 2022 3333 
Q 2194 3503 2194 3750 
Q 2194 3997 2020 4172 
Q 1847 4347 1600 4347 
z
M 1600 4750 
Q 1800 4750 1984 4673 
Q 2169 4597 2303 4453 
Q 2447 4313 2519 4134 
Q 2591 3956 2591 3750 
Q 2591 3338 2302 3052 
Q 2013 2766 1594 2766 
Q 1172 2766 890 3047 
Q 609 3328 609 3750 
Q 609 4169 896 4459 
Q 1184 4750 1600 4750 
z
" transform="scale(0.015625)"/>
       <path id="DejaVuSans-4e" d="M 628 4666 
L 1478 4666 
L 3547 763 
L 3547 4666 
L 4159 4666 
L 4159 0 
L 3309 0 
L 1241 3903 
L 1241 0 
L 628 0 
L 628 4666 
z
" transform="scale(0.015625)"/>
       <path id="DejaVuSans-29" d="M 513 4856 
L 1013 4856 
Q 1481 4119 1714 3412 
Q 1947 2706 1947 2009 
Q 1947 1309 1714 600 
Q 1481 -109 1013 -844 
L 513 -844 
Q 928 -128 1133 580 
Q 1338 1288 1338 2009 
Q 1338 2731 1133 3434 
Q 928 4138 513 4856 
z
" transform="scale(0.015625)"/>
      </defs>
      <use xlink:href="#DejaVuSans-6c" transform="translate(0 0.015625)"/>
      <use xlink:href="#DejaVuSans-61" transform="translate(27.783203 0.015625)"/>
      <use xlink:href="#DejaVuSans-74" transform="translate(89.0625 0.015625)"/>
      <use xlink:href="#DejaVuSans-69" transform="translate(128.271484 0.015625)"/>
      <use xlink:href="#DejaVuSans-74" transform="translate(156.054688 0.015625)"/>
      <use xlink:href="#DejaVuSans-75" transform="translate(195.263672 0.015625)"/>
      <use xlink:href="#DejaVuSans-64" transform="translate(258.642578 0.015625)"/>
      <use xlink:href="#DejaVuSans-65" transform="translate(322.119141 0.015625)"/>
      <use xlink:href="#DejaVuSans-20" transform="translate(383.642578 0.015625)"/>
      <use xlink:href="#DejaVuSans-28" transform="translate(415.429688 0.015625)"/>
      <use xlink:href="#DejaVuSans-b0" transform="translate(454.443359 0.015625)"/>
      <use xlink:href="#DejaVuSans-4e" transform="translate(504.443359 0.015625)"/>
      <use xlink:href="#DejaVuSans-29" transform="translate(579.248047 0.015625)"/>
     </g>
    </g>
   </g>
   <g id="matplotlib.axis_2">
    <g id="ytick_1">
     <g id="line2d_11">
      <defs>
       <path id="m9a472810c4" d="M 0 0 
L -3.5 0 
" style="stroke: #000000; stroke-width: 0.8"/>
      </defs>
      <g>
       <use xlink:href="#m9a472810c4" x="40.603125" y="232.759219" style="stroke: #000000; stroke-width: 0.8"/>
      </g>
     </g>
     <g id="text_12">
      <!-- 0 -->
      <g transform="translate(27.240625 236.558437) scale(0.1 -0.1)">
       <use xlink:href="#DejaVuSans-30"/>
      </g>
     </g>
    </g>
    <g id="ytick_2">
     <g id="line2d_12">
      <g>
       <use xlink:href="#m9a472810c4" x="40.603125" y="203.191219" style="stroke: #000000; stroke-width: 0.8"/>
      </g>
     </g>
     <g id="text_13">
      <!-- 2 -->
      <g transform="translate(27.240625 206.990437) scale(0.1 -0.1)">
       <use xlink:href="#DejaVuSans-32"/>
      </g>
     </g>
    </g>
    <g id="ytick_3">
     <g id="line2d_13">
      <g>
       <use xlink:href="#m9a472810c4" x="40.603125" y="158.839219" style="stroke: #000000; stroke-width: 0.8"/>
      </g>
     </g>
     <g id="text_14">
      <!-- 5 -->
      <g transform="translate(27.240625 162.638437) scale(0.1 -0.1)">
       <use xlink:href="#DejaVuSans-35"/>
      </g>
     </g>
    </g>
    <g id="ytick_4">
     <g id="line2d_14">
      <g>
       <use xlink:href="#m9a472810c4" x="40.603125" y="84.919219" style="stroke: #000000; stroke-width: 0.8"/>
      </g>
     </g>
     <g id="text_15">
      <!-- 10 -->
      <g transform="translate(20.878125 88.718437) scale(0.1 -0.1)">
       <use xlink:href="#DejaVuSans-31"/>
       <use xlink:href="#DejaVuSans-30" transform="translate(63.623047 0)"/>
      </g>
     </g>
    </g>
    <g id="ytick_5">
     <g id="line2d_15">
      <g>
       <use xlink:href="#m9a472810c4" x="40.603125" y="10.999219" style="stroke: #000000; stroke-width: 0.8"/>
      </g>
     </g>
     <g id="text_16">
      <!-- 15 -->
      <g transform="translate(20.878125 14.798437) scale(0.1 -0.1)">
       <use xlink:href="#DejaVuSans-31"/>
       <use xlink:href="#DejaVuSans-35" transform="translate(63.623047 0)"/>
      </g>
     </g>
    </g>
    <g id="text_17">
     <!-- $\rho_{\text{orbits}}$ -->
     <g transform="translate(14.778125 135.179219) rotate(-90) scale(0.1 -0.1)">
      <defs>
       <path id="DejaVuSans-Oblique-3c1" d="M 1203 2875 
Q 1453 3194 1981 3475 
Q 2188 3584 2756 3584 
Q 3394 3584 3694 3078 
Q 3994 2572 3834 1747 
Q 3672 922 3175 415 
Q 2678 -91 2041 -91 
Q 1656 -91 1409 63 
Q 1163 213 1044 525 
L 681 -1331 
L 103 -1331 
L 697 1716 
Q 838 2438 1203 2875 
z
M 3238 1747 
Q 3359 2381 3169 2744 
Q 2978 3103 2522 3103 
Q 2066 3103 1734 2744 
Q 1403 2381 1281 1747 
Q 1156 1113 1347 750 
Q 1538 391 1994 391 
Q 2450 391 2781 750 
Q 3113 1113 3238 1747 
z
" transform="scale(0.015625)"/>
       <path id="DejaVuSans-6f" d="M 1959 3097 
Q 1497 3097 1228 2736 
Q 959 2375 959 1747 
Q 959 1119 1226 758 
Q 1494 397 1959 397 
Q 2419 397 2687 759 
Q 2956 1122 2956 1747 
Q 2956 2369 2687 2733 
Q 2419 3097 1959 3097 
z
M 1959 3584 
Q 2709 3584 3137 3096 
Q 3566 2609 3566 1747 
Q 3566 888 3137 398 
Q 2709 -91 1959 -91 
Q 1206 -91 779 398 
Q 353 888 353 1747 
Q 353 2609 779 3096 
Q 1206 3584 1959 3584 
z
" transform="scale(0.015625)"/>
       <path id="DejaVuSans-72" d="M 2631 2963 
Q 2534 3019 2420 3045 
Q 2306 3072 2169 3072 
Q 1681 3072 1420 2755 
Q 1159 2438 1159 1844 
L 1159 0 
L 581 0 
L 581 3500 
L 1159 3500 
L 1159 2956 
Q 1341 3275 1631 3429 
Q 1922 3584 2338 3584 
Q 2397 3584 2469 3576 
Q 2541 3569 2628 3553 
L 2631 2963 
z
" transform="scale(0.015625)"/>
       <path id="DejaVuSans-62" d="M 3116 1747 
Q 3116 2381 2855 2742 
Q 2594 3103 2138 3103 
Q 1681 3103 1420 2742 
Q 1159 2381 1159 1747 
Q 1159 1113 1420 752 
Q 1681 391 2138 391 
Q 2594 391 2855 752 
Q 3116 1113 3116 1747 
z
M 1159 2969 
Q 1341 3281 1617 3432 
Q 1894 3584 2278 3584 
Q 2916 3584 3314 3078 
Q 3713 2572 3713 1747 
Q 3713 922 3314 415 
Q 2916 -91 2278 -91 
Q 1894 -91 1617 61 
Q 1341 213 1159 525 
L 1159 0 
L 581 0 
L 581 4863 
L 1159 4863 
L 1159 2969 
z
" transform="scale(0.015625)"/>
       <path id="DejaVuSans-73" d="M 2834 3397 
L 2834 2853 
Q 2591 2978 2328 3040 
Q 2066 3103 1784 3103 
Q 1356 3103 1142 2972 
Q 928 2841 928 2578 
Q 928 2378 1081 2264 
Q 1234 2150 1697 2047 
L 1894 2003 
Q 2506 1872 2764 1633 
Q 3022 1394 3022 966 
Q 3022 478 2636 193 
Q 2250 -91 1575 -91 
Q 1294 -91 989 -36 
Q 684 19 347 128 
L 347 722 
Q 666 556 975 473 
Q 1284 391 1588 391 
Q 1994 391 2212 530 
Q 2431 669 2431 922 
Q 2431 1156 2273 1281 
Q 2116 1406 1581 1522 
L 1381 1569 
Q 847 1681 609 1914 
Q 372 2147 372 2553 
Q 372 3047 722 3315 
Q 1072 3584 1716 3584 
Q 2034 3584 2315 3537 
Q 2597 3491 2834 3397 
z
" transform="scale(0.015625)"/>
      </defs>
      <use xlink:href="#DejaVuSans-Oblique-3c1"/>
      <use xlink:href="#DejaVuSans-6f" transform="translate(63.476562 -16.40625) scale(0.7)"/>
      <use xlink:href="#DejaVuSans-72" transform="translate(106.303711 -16.40625) scale(0.7)"/>
      <use xlink:href="#DejaVuSans-62" transform="translate(135.083008 -16.40625) scale(0.7)"/>
      <use xlink:href="#DejaVuSans-69" transform="translate(179.516602 -16.40625) scale(0.7)"/>
      <use xlink:href="#DejaVuSans-74" transform="translate(198.964844 -16.40625) scale(0.7)"/>
      <use xlink:href="#DejaVuSans-73" transform="translate(226.411133 -16.40625) scale(0.7)"/>
     </g>
    </g>
   </g>
   <g id="line2d_16">
    <path d="M 40.603125 217.975219 
L 68.830299 217.864126 
L 95.941144 217.538013 
L 120.978807 217.018209 
L 143.358544 216.335903 
L 163.027196 215.518908 
L 180.144239 214.590385 
L 194.922308 213.572007 
L 207.733511 212.471845 
L 218.843642 211.299269 
L 228.465334 210.065081 
L 236.811221 208.776278 
L 244.093938 207.432932 
L 250.472961 206.036416 
L 256.107764 204.579713 
L 261.051506 203.077637 
L 265.463663 201.508201 
L 269.397394 199.874248 
L 272.905856 198.176959 
L 276.042209 196.414178 
L 278.85961 194.578089 
L 281.411219 192.652023 
L 283.750194 190.606033 
L 285.876535 188.448673 
L 287.8434 186.129995 
L 289.65079 183.64719 
L 291.298704 181.00378 
L 292.840301 178.104887 
L 294.275581 174.921014 
L 295.604544 171.421049 
L 296.82719 167.573899 
L 297.996677 163.129646 
L 299.059848 158.19347 
L 300.06986 152.386146 
L 300.973555 145.857216 
L 301.824091 138.001563 
L 302.56831 129.050975 
L 303.259371 117.986049 
L 303.897273 103.851111 
L 304.428858 87.013339 
L 304.907285 64.43522 
L 305.332553 32.07037 
L 305.597939 -1 
L 305.597939 -1 
" clip-path="url(#p19eff011e8)" style="fill: none; stroke: #011959; stroke-width: 1.5; stroke-linecap: square"/>
   </g>
   <g id="line2d_17">
    <path d="M 306.342565 232.759219 
L 306.342565 10.999219 
" clip-path="url(#p19eff011e8)" style="fill: none; stroke-dasharray: 5.55,2.4; stroke-dashoffset: 0; stroke: #011959; stroke-width: 1.5"/>
   </g>
   <g id="line2d_18">
    <path d="M 40.603125 217.975219 
L 76.381207 217.864007 
L 111.04923 217.536055 
L 143.582522 217.009277 
L 173.383359 216.308574 
L 200.280962 215.458426 
L 224.360722 214.479812 
L 245.878805 213.387212 
L 265.091379 212.19272 
L 282.169222 210.912848 
L 297.453892 209.549159 
L 311.201556 208.102877 
L 323.497604 206.590422 
L 334.598202 205.005754 
L 344.67413 203.346027 
L 353.810776 201.618313 
L 362.09353 199.829213 
L 369.607781 197.983984 
L 376.524308 196.060189 
L 382.84311 194.0757 
L 388.649577 192.02319 
L 394.029098 189.887809 
L 398.981672 187.68493 
L 403.59269 185.390956 
L 407.862151 183.018695 
L 411.790055 180.58626 
L 415.461791 178.056003 
L 418.87736 175.439228 
L 422.12215 172.675496 
L 425.196162 169.76147 
L 428.099396 166.695584 
L 430.831851 163.478726 
L 433.393527 160.115082 
L 435.784425 156.613185 
L 438.089934 152.839568 
L 440.224665 148.928664 
L 442.274006 144.719706 
L 444.237958 140.18021 
L 446.116521 135.272868 
L 447.909694 129.954664 
L 449.617478 124.175806 
L 451.239874 117.878453 
L 452.77688 110.995197 
L 454.228496 103.44727 
L 455.594724 95.14248 
L 456.875562 85.972909 
L 458.071011 75.812509 
L 459.181071 64.514925 
L 460.205741 51.912267 
L 461.230412 36.381947 
L 462.169693 18.423315 
L 462.967688 -1 
L 462.967688 -1 
" clip-path="url(#p19eff011e8)" style="fill: none; stroke: #828231; stroke-width: 1.5; stroke-linecap: square"/>
   </g>
   <g id="line2d_19">
    <path d="M 467.463825 232.759219 
L 467.463825 10.999219 
" clip-path="url(#p19eff011e8)" style="fill: none; stroke-dasharray: 5.55,2.4; stroke-dashoffset: 0; stroke: #828231; stroke-width: 1.5"/>
   </g>
   <g id="line2d_20">
    <path d="M 40.603125 217.975219 
L 76.248136 217.86427 
L 110.797674 217.536947 
L 143.240532 217.010665 
L 172.986842 216.309552 
L 199.783801 215.460162 
L 223.799943 214.480919 
L 245.203803 213.390109 
L 264.248182 212.201797 
L 281.270149 210.921148 
L 296.438239 209.561818 
L 310.08952 208.11866 
L 322.308259 206.607297 
L 333.347258 205.020978 
L 343.290783 203.371 
L 352.30737 201.652767 
L 360.481285 199.872422 
L 367.896796 198.034734 
L 374.722436 196.116803 
L 380.958206 194.135817 
L 386.688373 192.083765 
L 391.912938 189.980926 
L 396.716166 187.814458 
L 401.182326 185.561019 
L 405.311417 183.233737 
L 409.187707 180.795166 
L 412.811195 178.251187 
L 416.181881 175.611608 
L 419.299766 172.89115 
L 422.249117 170.024161 
L 425.029934 167.00944 
L 427.642216 163.848385 
L 430.085964 160.545909 
L 432.445444 156.976841 
L 434.636391 153.259414 
L 436.74307 149.2413 
L 438.765482 144.885366 
L 440.619359 140.366965 
L 442.38897 135.47653 
L 444.074313 130.169624 
L 445.675389 124.394835 
L 447.192198 118.092535 
L 448.62474 111.193465 
L 449.973015 103.617147 
L 451.237022 95.270224 
L 452.416762 86.044874 
L 453.512236 75.817698 
L 454.607709 63.398449 
L 455.618915 49.194313 
L 456.545854 32.814936 
L 457.388525 13.761742 
L 457.911897 -1 
L 457.911897 -1 
" clip-path="url(#p19eff011e8)" style="fill: none; stroke: #f19d6b; stroke-width: 1.5; stroke-linecap: square"/>
   </g>
   <g id="line2d_21">
    <path d="M 461.854685 232.759219 
L 461.854685 10.999219 
" clip-path="url(#p19eff011e8)" style="fill: none; stroke-dasharray: 5.55,2.4; stroke-dashoffset: 0; stroke: #f19d6b; stroke-width: 1.5"/>
   </g>
   <g id="line2d_22">
    <path d="M 40.603125 217.975219 
L 76.657037 217.863858 
L 111.623896 217.535147 
L 144.416649 217.007673 
L 174.491772 216.305599 
L 201.668087 215.453311 
L 226.036183 214.471308 
L 247.867823 213.372793 
L 267.344182 212.173905 
L 284.737024 210.884655 
L 300.318111 209.511068 
L 314.359207 208.053372 
L 326.9509 206.52719 
L 338.364953 204.924035 
L 348.691952 203.253809 
L 358.113075 201.509012 
L 366.718908 199.692568 
L 374.60004 197.804957 
L 381.847057 195.84295 
L 388.45996 193.827363 
L 394.619925 191.720481 
L 400.326951 189.535243 
L 405.581039 187.289814 
L 410.472776 184.962952 
L 415.092749 182.52045 
L 419.44096 179.96759 
L 423.517407 177.313078 
L 427.322091 174.569743 
L 430.9456 171.679344 
L 434.297345 168.725526 
L 437.558503 165.551276 
L 440.638486 162.237569 
L 443.537293 158.793143 
L 446.345512 155.106299 
L 448.972556 151.29477 
L 451.509012 147.227594 
L 453.95488 142.885935 
L 456.310161 138.249845 
L 458.574854 133.298327 
L 460.748959 128.009467 
L 462.832476 122.360639 
L 464.825406 116.328814 
L 466.818336 109.565808 
L 468.720678 102.293742 
L 470.532432 94.474595 
L 472.253599 86.069618 
L 473.974766 76.503874 
L 475.605345 66.124389 
L 477.145336 54.860318 
L 478.594739 42.638711 
L 480.044143 28.430974 
L 481.402959 12.800986 
L 482.436425 -1 
L 482.436425 -1 
" clip-path="url(#p19eff011e8)" style="fill: none; stroke: #114360; stroke-width: 1.5; stroke-linecap: square"/>
    <defs>
     <path id="m1425df6f73" d="M 0 3 
C 0.795609 3 1.55874 2.683901 2.12132 2.12132 
C 2.683901 1.55874 3 0.795609 3 0 
C 3 -0.795609 2.683901 -1.55874 2.12132 -2.12132 
C 1.55874 -2.683901 0.795609 -3 0 -3 
C -0.795609 -3 -1.55874 -2.683901 -2.12132 -2.12132 
C -2.683901 -1.55874 -3 -0.795609 -3 0 
C -3 0.795609 -2.683901 1.55874 -2.12132 2.12132 
C -1.55874 2.683901 -0.795609 3 0 3 
z
" style="stroke: #114360"/>
    </defs>
    <g clip-path="url(#p19eff011e8)">
     <use xlink:href="#m1425df6f73" x="45.132511" y="217.973472" style="fill: #114360; stroke: #114360"/>
     <use xlink:href="#m1425df6f73" x="67.77944" y="217.912119" style="fill: #114360; stroke: #114360"/>
     <use xlink:href="#m1425df6f73" x="90.42637" y="217.761335" style="fill: #114360; stroke: #114360"/>
     <use xlink:href="#m1425df6f73" x="113.073299" y="217.516533" style="fill: #114360; stroke: #114360"/>
     <use xlink:href="#m1425df6f73" x="135.720228" y="217.170026" style="fill: #114360; stroke: #114360"/>
     <use xlink:href="#m1425df6f73" x="158.367158" y="216.710413" style="fill: #114360; stroke: #114360"/>
     <use xlink:href="#m1425df6f73" x="181.014087" y="216.121614" style="fill: #114360; stroke: #114360"/>
     <use xlink:href="#m1425df6f73" x="203.661017" y="215.381379" style="fill: #114360; stroke: #114360"/>
     <use xlink:href="#m1425df6f73" x="226.307946" y="214.459007" style="fill: #114360; stroke: #114360"/>
     <use xlink:href="#m1425df6f73" x="248.954875" y="213.311777" style="fill: #114360; stroke: #114360"/>
     <use xlink:href="#m1425df6f73" x="271.601805" y="211.879244" style="fill: #114360; stroke: #114360"/>
     <use xlink:href="#m1425df6f73" x="294.248734" y="210.073768" style="fill: #114360; stroke: #114360"/>
     <use xlink:href="#m1425df6f73" x="316.895664" y="207.764055" style="fill: #114360; stroke: #114360"/>
     <use xlink:href="#m1425df6f73" x="339.542593" y="204.744924" style="fill: #114360; stroke: #114360"/>
     <use xlink:href="#m1425df6f73" x="362.189522" y="200.677628" style="fill: #114360; stroke: #114360"/>
     <use xlink:href="#m1425df6f73" x="384.836452" y="194.960736" style="fill: #114360; stroke: #114360"/>
     <use xlink:href="#m1425df6f73" x="407.483381" y="186.414055" style="fill: #114360; stroke: #114360"/>
     <use xlink:href="#m1425df6f73" x="430.13031" y="172.355508" style="fill: #114360; stroke: #114360"/>
     <use xlink:href="#m1425df6f73" x="452.77724" y="145.031964" style="fill: #114360; stroke: #114360"/>
     <use xlink:href="#m1425df6f73" x="475.424169" y="67.350059" style="fill: #114360; stroke: #114360"/>
    </g>
   </g>
   <g id="line2d_23">
    <path d="M 493.451125 232.759219 
L 493.451125 10.999219 
" clip-path="url(#p19eff011e8)" style="fill: none; stroke-dasharray: 5.55,2.4; stroke-dashoffset: 0; stroke: #114360; stroke-width: 1.5"/>
   </g>
   <g id="line2d_24">
    <path d="M 40.603125 217.975219 
L 503.743125 217.975219 
" clip-path="url(#p19eff011e8)" style="fill: none; stroke-dasharray: 7.5,10; stroke-dashoffset: 16; stroke: #000000; stroke-width: 0.5"/>
   </g>
   <g id="line2d_25">
    <path d="M 40.603125 203.191219 
L 503.743125 203.191219 
" clip-path="url(#p19eff011e8)" style="fill: none; stroke-dasharray: 7.5,10; stroke-dashoffset: 14.5; stroke: #000000; stroke-width: 0.5"/>
   </g>
   <g id="line2d_26">
    <path d="M 40.603125 158.839219 
L 503.743125 158.839219 
" clip-path="url(#p19eff011e8)" style="fill: none; stroke-dasharray: 7.5,10; stroke-dashoffset: 10; stroke: #000000; stroke-width: 0.5"/>
   </g>
   <g id="line2d_27">
    <path d="M 40.603125 84.919219 
L 503.743125 84.919219 
" clip-path="url(#p19eff011e8)" style="fill: none; stroke-dasharray: 7.5,10; stroke-dashoffset: 2.5; stroke: #000000; stroke-width: 0.5"/>
   </g>
   <g id="patch_3">
    <path d="M 40.603125 232.759219 
L 40.603125 10.999219 
" style="fill: none; stroke: #000000; stroke-width: 0.8; stroke-linejoin: miter; stroke-linecap: square"/>
   </g>
   <g id="patch_4">
    <path d="M 503.743125 232.759219 
L 503.743125 10.999219 
" style="fill: none; stroke: #000000; stroke-width: 0.8; stroke-linejoin: miter; stroke-linecap: square"/>
   </g>
   <g id="patch_5">
    <path d="M 40.603125 232.759219 
L 503.743125 232.759219 
" style="fill: none; stroke: #000000; stroke-width: 0.8; stroke-linejoin: miter; stroke-linecap: square"/>
   </g>
   <g id="patch_6">
    <path d="M 40.603125 10.999219 
L 503.743125 10.999219 
" style="fill: none; stroke: #000000; stroke-width: 0.8; stroke-linejoin: miter; stroke-linecap: square"/>
   </g>
   <g id="legend_1">
    <g id="patch_7">
     <path d="M 47.603125 77.711719 
L 133.509375 77.711719 
Q 135.509375 77.711719 135.509375 75.711719 
L 135.509375 17.999219 
Q 135.509375 15.999219 133.509375 15.999219 
L 47.603125 15.999219 
Q 45.603125 15.999219 45.603125 17.999219 
L 45.603125 75.711719 
Q 45.603125 77.711719 47.603125 77.711719 
z
" style="fill: #ffffff; opacity: 0.8; stroke: #cccccc; stroke-linejoin: miter"/>
    </g>
    <g id="line2d_28">
     <path d="M 49.603125 24.097656 
L 59.603125 24.097656 
L 69.603125 24.097656 
" style="fill: none; stroke: #011959; stroke-width: 1.5; stroke-linecap: square"/>
    </g>
    <g id="text_18">
     <!-- ISS -->
     <g transform="translate(77.603125 27.597656) scale(0.1 -0.1)">
      <defs>
       <path id="DejaVuSans-49" d="M 628 4666 
L 1259 4666 
L 1259 0 
L 628 0 
L 628 4666 
z
" transform="scale(0.015625)"/>
       <path id="DejaVuSans-53" d="M 3425 4513 
L 3425 3897 
Q 3066 4069 2747 4153 
Q 2428 4238 2131 4238 
Q 1616 4238 1336 4038 
Q 1056 3838 1056 3469 
Q 1056 3159 1242 3001 
Q 1428 2844 1947 2747 
L 2328 2669 
Q 3034 2534 3370 2195 
Q 3706 1856 3706 1288 
Q 3706 609 3251 259 
Q 2797 -91 1919 -91 
Q 1588 -91 1214 -16 
Q 841 59 441 206 
L 441 856 
Q 825 641 1194 531 
Q 1563 422 1919 422 
Q 2459 422 2753 634 
Q 3047 847 3047 1241 
Q 3047 1584 2836 1778 
Q 2625 1972 2144 2069 
L 1759 2144 
Q 1053 2284 737 2584 
Q 422 2884 422 3419 
Q 422 4038 858 4394 
Q 1294 4750 2059 4750 
Q 2388 4750 2728 4690 
Q 3069 4631 3425 4513 
z
" transform="scale(0.015625)"/>
      </defs>
      <use xlink:href="#DejaVuSans-49"/>
      <use xlink:href="#DejaVuSans-53" transform="translate(29.492188 0)"/>
      <use xlink:href="#DejaVuSans-53" transform="translate(92.96875 0)"/>
     </g>
    </g>
    <g id="line2d_29">
     <path d="M 49.603125 38.775781 
L 59.603125 38.775781 
L 69.603125 38.775781 
" style="fill: none; stroke: #828231; stroke-width: 1.5; stroke-linecap: square"/>
    </g>
    <g id="text_19">
     <!-- EarthCARE -->
     <g transform="translate(77.603125 42.275781) scale(0.1 -0.1)">
      <defs>
       <path id="DejaVuSans-45" d="M 628 4666 
L 3578 4666 
L 3578 4134 
L 1259 4134 
L 1259 2753 
L 3481 2753 
L 3481 2222 
L 1259 2222 
L 1259 531 
L 3634 531 
L 3634 0 
L 628 0 
L 628 4666 
z
" transform="scale(0.015625)"/>
       <path id="DejaVuSans-68" d="M 3513 2113 
L 3513 0 
L 2938 0 
L 2938 2094 
Q 2938 2591 2744 2837 
Q 2550 3084 2163 3084 
Q 1697 3084 1428 2787 
Q 1159 2491 1159 1978 
L 1159 0 
L 581 0 
L 581 4863 
L 1159 4863 
L 1159 2956 
Q 1366 3272 1645 3428 
Q 1925 3584 2291 3584 
Q 2894 3584 3203 3211 
Q 3513 2838 3513 2113 
z
" transform="scale(0.015625)"/>
       <path id="DejaVuSans-43" d="M 4122 4306 
L 4122 3641 
Q 3803 3938 3442 4084 
Q 3081 4231 2675 4231 
Q 1875 4231 1450 3742 
Q 1025 3253 1025 2328 
Q 1025 1406 1450 917 
Q 1875 428 2675 428 
Q 3081 428 3442 575 
Q 3803 722 4122 1019 
L 4122 359 
Q 3791 134 3420 21 
Q 3050 -91 2638 -91 
Q 1578 -91 968 557 
Q 359 1206 359 2328 
Q 359 3453 968 4101 
Q 1578 4750 2638 4750 
Q 3056 4750 3426 4639 
Q 3797 4528 4122 4306 
z
" transform="scale(0.015625)"/>
       <path id="DejaVuSans-41" d="M 2188 4044 
L 1331 1722 
L 3047 1722 
L 2188 4044 
z
M 1831 4666 
L 2547 4666 
L 4325 0 
L 3669 0 
L 3244 1197 
L 1141 1197 
L 716 0 
L 50 0 
L 1831 4666 
z
" transform="scale(0.015625)"/>
       <path id="DejaVuSans-52" d="M 2841 2188 
Q 3044 2119 3236 1894 
Q 3428 1669 3622 1275 
L 4263 0 
L 3584 0 
L 2988 1197 
Q 2756 1666 2539 1819 
Q 2322 1972 1947 1972 
L 1259 1972 
L 1259 0 
L 628 0 
L 628 4666 
L 2053 4666 
Q 2853 4666 3247 4331 
Q 3641 3997 3641 3322 
Q 3641 2881 3436 2590 
Q 3231 2300 2841 2188 
z
M 1259 4147 
L 1259 2491 
L 2053 2491 
Q 2509 2491 2742 2702 
Q 2975 2913 2975 3322 
Q 2975 3731 2742 3939 
Q 2509 4147 2053 4147 
L 1259 4147 
z
" transform="scale(0.015625)"/>
      </defs>
      <use xlink:href="#DejaVuSans-45"/>
      <use xlink:href="#DejaVuSans-61" transform="translate(63.183594 0)"/>
      <use xlink:href="#DejaVuSans-72" transform="translate(124.462891 0)"/>
      <use xlink:href="#DejaVuSans-74" transform="translate(165.576172 0)"/>
      <use xlink:href="#DejaVuSans-68" transform="translate(204.785156 0)"/>
      <use xlink:href="#DejaVuSans-43" transform="translate(268.164062 0)"/>
      <use xlink:href="#DejaVuSans-41" transform="translate(337.988281 0)"/>
      <use xlink:href="#DejaVuSans-52" transform="translate(406.396484 0)"/>
      <use xlink:href="#DejaVuSans-45" transform="translate(475.878906 0)"/>
     </g>
    </g>
    <g id="line2d_30">
     <path d="M 49.603125 53.453906 
L 59.603125 53.453906 
L 69.603125 53.453906 
" style="fill: none; stroke: #f19d6b; stroke-width: 1.5; stroke-linecap: square"/>
    </g>
    <g id="text_20">
     <!-- A-TRAIN -->
     <g transform="translate(77.603125 56.953906) scale(0.1 -0.1)">
      <defs>
       <path id="DejaVuSans-2d" d="M 313 2009 
L 1997 2009 
L 1997 1497 
L 313 1497 
L 313 2009 
z
" transform="scale(0.015625)"/>
       <path id="DejaVuSans-54" d="M -19 4666 
L 3928 4666 
L 3928 4134 
L 2272 4134 
L 2272 0 
L 1638 0 
L 1638 4134 
L -19 4134 
L -19 4666 
z
" transform="scale(0.015625)"/>
      </defs>
      <use xlink:href="#DejaVuSans-41"/>
      <use xlink:href="#DejaVuSans-2d" transform="translate(66.158203 0)"/>
      <use xlink:href="#DejaVuSans-54" transform="translate(93.117188 0)"/>
      <use xlink:href="#DejaVuSans-52" transform="translate(154.201172 0)"/>
      <use xlink:href="#DejaVuSans-41" transform="translate(219.683594 0)"/>
      <use xlink:href="#DejaVuSans-49" transform="translate(288.091797 0)"/>
      <use xlink:href="#DejaVuSans-4e" transform="translate(317.583984 0)"/>
     </g>
    </g>
    <g id="line2d_31">
     <path d="M 49.603125 68.132031 
L 59.603125 68.132031 
L 69.603125 68.132031 
" style="fill: none; stroke: #114360; stroke-width: 1.5; stroke-linecap: square"/>
     <g>
      <use xlink:href="#m1425df6f73" x="59.603125" y="68.132031" style="fill: #114360; stroke: #114360"/>
     </g>
    </g>
    <g id="text_21">
     <!-- ICESat-2 -->
     <g transform="translate(77.603125 71.632031) scale(0.1 -0.1)">
      <use xlink:href="#DejaVuSans-49"/>
      <use xlink:href="#DejaVuSans-43" transform="translate(29.492188 0)"/>
      <use xlink:href="#DejaVuSans-45" transform="translate(99.316406 0)"/>
      <use xlink:href="#DejaVuSans-53" transform="translate(162.5 0)"/>
      <use xlink:href="#DejaVuSans-61" transform="translate(225.976562 0)"/>
      <use xlink:href="#DejaVuSans-74" transform="translate(287.255859 0)"/>
      <use xlink:href="#DejaVuSans-2d" transform="translate(326.464844 0)"/>
      <use xlink:href="#DejaVuSans-32" transform="translate(362.548828 0)"/>
     </g>
    </g>
   </g>
  </g>
 </g>
 <defs>
  <clipPath id="p19eff011e8">
   <rect x="40.603125" y="10.999219" width="463.14" height="221.76"/>
  </clipPath>
 </defs>
</svg>
