<?xml version="1.0" encoding="utf-8" standalone="no"?>
<!DOCTYPE svg PUBLIC "-//W3C//DTD SVG 1.1//EN"
  "http://www.w3.org/Graphics/SVG/1.1/DTD/svg11.dtd">
<svg xmlns:xlink="http://www.w3.org/1999/xlink" width="44.249157pt" height="223.397719pt" viewBox="0 0 44.249157 223.397719" xmlns="http://www.w3.org/2000/svg" version="1.1">
 <metadata>
  <rdf:RDF xmlns:dc="http://purl.org/dc/elements/1.1/" xmlns:cc="http://creativecommons.org/ns#" xmlns:rdf="http://www.w3.org/1999/02/22-rdf-syntax-ns#">
   <cc:Work>
    <dc:type rdf:resource="http://purl.org/dc/dcmitype/StillImage"/>
    <dc:date>2026-03-26T12:58:34.288965</dc:date>
    <dc:format>image/svg+xml</dc:format>
    <dc:creator>
     <cc:Agent>
      <dc:title>Matplotlib v3.10.8, https://matplotlib.org/</dc:title>
     </cc:Agent>
    </dc:creator>
   </cc:Work>
  </rdf:RDF>
 </metadata>
 <defs>
  <style type="text/css">*{stroke-linejoin: round; stroke-linecap: butt}</style>
 </defs>
 <g id="figure_1">
  <g id="patch_1">
   <path d="M 0 223.397719 
L 44.249157 223.397719 
L 44.249157 0 
L 0 0 
L 0 223.397719 
z
" style="fill: none"/>
  </g>
  <g id="axes_1">
   <g id="patch_2">
    <path d="M 7.2 216.197719 
L 17.619782 216.197719 
L 17.619782 7.802081 
L 7.2 7.802081 
L 7.2 216.197719 
z
" style="fill: none"/>
   </g>
   <g id="QuadMesh_1">
    <path d="M 7.2 216.197719 
L 17.619782 216.197719 
L 17.619782 146.732506 
L 7.2 146.732506 
L 7.2 216.197719 
" clip-path="url(#p3978d0ffa0)" style="fill: #eae8fb"/>
    <path d="M 7.2 146.732506 
L 17.619782 146.732506 
L 17.619782 77.267294 
L 7.2 77.267294 
L 7.2 146.732506 
" clip-path="url(#p3978d0ffa0)" style="fill: #7e8fdd"/>
    <path d="M 7.2 77.267294 
L 17.619782 77.267294 
L 17.619782 7.802081 
L 7.2 7.802081 
L 7.2 77.267294 
" clip-path="url(#p3978d0ffa0)" style="fill: #293164"/>
   </g>
   <g id="matplotlib.axis_1"/>
   <g id="matplotlib.axis_2">
    <g id="ytick_1">
     <g id="line2d_1">
      <defs>
       <path id="m614de00432" d="M 0 0 
L 3.5 0 
" style="stroke: #000000; stroke-width: 0.8"/>
      </defs>
      <g>
       <use xlink:href="#m614de00432" x="17.619782" y="181.465113" style="stroke: #000000; stroke-width: 0.8"/>
      </g>
     </g>
     <g id="text_1">
      <!-- no cloud -->
      <g transform="translate(27.334469 155.443707) rotate(-270) scale(0.14 -0.14)">
       <defs>
        <path id="CMUSerif-Roman-6e" d="M 206 0 
L 206 197 
Q 547 197 625 239 
Q 703 281 703 488 
L 703 2203 
Q 703 2441 620 2500 
Q 538 2559 206 2559 
L 206 2759 
L 1106 2828 
L 1106 2156 
Q 1406 2828 2053 2828 
Q 2534 2828 2725 2591 
Q 2866 2431 2895 2253 
Q 2925 2075 2925 1613 
L 2925 391 
Q 2931 256 3034 226 
Q 3138 197 3425 197 
L 3425 0 
Q 2772 19 2706 19 
Q 2656 19 1984 0 
L 1984 197 
Q 2325 197 2404 239 
Q 2484 281 2484 488 
L 2484 1978 
Q 2484 2303 2384 2495 
Q 2284 2688 2009 2688 
Q 1678 2688 1412 2409 
Q 1147 2131 1147 1663 
L 1147 488 
Q 1147 281 1226 239 
Q 1306 197 1644 197 
L 1644 0 
Q 991 19 928 19 
Q 878 19 206 0 
z
" transform="scale(0.015625)"/>
        <path id="CMUSerif-Roman-6f" d="M 601 345 
Q 178 763 178 1370 
Q 178 1978 592 2423 
Q 1006 2869 1600 2869 
Q 2181 2869 2598 2426 
Q 3016 1984 3016 1369 
Q 3016 766 2595 347 
Q 2175 -72 1594 -72 
Q 1025 -72 601 345 
z
M 709 1422 
Q 709 800 872 519 
Q 1122 91 1600 91 
Q 1838 91 2036 219 
Q 2234 347 2344 563 
Q 2484 844 2484 1422 
Q 2484 2038 2316 2309 
Q 2066 2725 1594 2725 
Q 1388 2725 1186 2617 
Q 984 2509 863 2297 
Q 709 2016 709 1422 
z
" transform="scale(0.015625)"/>
        <path id="CMUSerif-Roman-20" transform="scale(0.015625)"/>
        <path id="CMUSerif-Roman-63" d="M 625 351 
Q 219 775 219 1383 
Q 219 1991 619 2430 
Q 1019 2869 1606 2869 
Q 1997 2869 2290 2683 
Q 2584 2497 2584 2181 
Q 2584 2041 2501 1961 
Q 2419 1881 2291 1881 
Q 2156 1881 2076 1964 
Q 1997 2047 1997 2175 
Q 1997 2231 2015 2287 
Q 2034 2344 2104 2403 
Q 2175 2463 2297 2472 
Q 2069 2706 1625 2706 
Q 1619 2706 1613 2706 
Q 1288 2706 1019 2400 
Q 750 2094 750 1394 
Q 750 1028 839 761 
Q 928 494 1075 356 
Q 1222 219 1365 155 
Q 1509 91 1650 91 
Q 2278 91 2491 763 
Q 2509 825 2572 825 
Q 2656 825 2656 763 
Q 2656 731 2631 650 
Q 2606 569 2528 441 
Q 2450 313 2339 202 
Q 2228 91 2033 9 
Q 1838 -72 1594 -72 
Q 1031 -72 625 351 
z
" transform="scale(0.015625)"/>
        <path id="CMUSerif-Roman-6c" d="M 213 0 
L 213 197 
Q 553 197 631 239 
Q 709 281 709 488 
L 709 3816 
Q 709 4053 626 4112 
Q 544 4172 213 4172 
L 213 4372 
L 1131 4441 
L 1131 488 
Q 1131 281 1212 239 
Q 1294 197 1631 197 
L 1631 0 
Q 1553 0 1390 6 
Q 1228 13 1109 16 
Q 991 19 922 19 
Q 847 19 213 0 
z
" transform="scale(0.015625)"/>
        <path id="CMUSerif-Roman-75" d="M 206 2559 
L 206 2759 
L 1147 2828 
L 1147 703 
Q 1147 550 1159 461 
Q 1172 372 1223 269 
Q 1275 166 1395 119 
Q 1516 72 1709 72 
Q 2056 72 2270 356 
Q 2484 641 2484 1063 
L 2484 2203 
Q 2484 2441 2400 2500 
Q 2316 2559 1984 2559 
L 1984 2759 
L 2925 2828 
L 2925 556 
Q 2925 319 3008 258 
Q 3091 197 3425 197 
L 3425 0 
L 2503 -72 
L 2503 506 
Q 2234 -69 1678 -72 
Q 1397 -72 1205 0 
Q 1013 72 916 161 
Q 819 250 767 422 
Q 716 594 709 700 
Q 703 806 703 1013 
L 703 1972 
Q 703 2406 640 2482 
Q 578 2559 206 2559 
z
" transform="scale(0.015625)"/>
        <path id="CMUSerif-Roman-64" d="M 219 1375 
Q 219 1984 644 2406 
Q 1069 2828 1644 2828 
Q 2131 2828 2450 2431 
L 2450 3816 
Q 2450 4053 2367 4112 
Q 2284 4172 1953 4172 
L 1953 4372 
L 2875 4441 
L 2875 556 
Q 2875 319 2958 258 
Q 3041 197 3372 197 
L 3372 0 
L 2431 -72 
L 2431 353 
Q 2100 -69 1575 -72 
Q 1025 -72 622 350 
Q 219 772 219 1375 
z
M 750 1369 
Q 750 775 934 481 
Q 1191 72 1606 72 
Q 2081 72 2363 519 
Q 2434 628 2431 756 
L 2431 2069 
Q 2431 2197 2363 2303 
Q 2100 2688 1672 2688 
Q 1225 2688 947 2278 
Q 750 1972 750 1369 
z
" transform="scale(0.015625)"/>
       </defs>
       <use xlink:href="#CMUSerif-Roman-6e"/>
       <use xlink:href="#CMUSerif-Roman-6f" transform="translate(55.46875 0)"/>
       <use xlink:href="#CMUSerif-Roman-20" transform="translate(105.46875 0)"/>
       <use xlink:href="#CMUSerif-Roman-63" transform="translate(138.720703 0)"/>
       <use xlink:href="#CMUSerif-Roman-6c" transform="translate(183.105469 0)"/>
       <use xlink:href="#CMUSerif-Roman-6f" transform="translate(210.791016 0)"/>
       <use xlink:href="#CMUSerif-Roman-75" transform="translate(260.791016 0)"/>
       <use xlink:href="#CMUSerif-Roman-64" transform="translate(316.259766 0)"/>
      </g>
     </g>
    </g>
    <g id="ytick_2">
     <g id="line2d_2">
      <g>
       <use xlink:href="#m614de00432" x="17.619782" y="111.9999" style="stroke: #000000; stroke-width: 0.8"/>
      </g>
     </g>
     <g id="text_2">
      <!-- cloud -->
      <g transform="translate(27.334469 95.688806) rotate(-270) scale(0.14 -0.14)">
       <use xlink:href="#CMUSerif-Roman-63"/>
       <use xlink:href="#CMUSerif-Roman-6c" transform="translate(44.384766 0)"/>
       <use xlink:href="#CMUSerif-Roman-6f" transform="translate(72.070312 0)"/>
       <use xlink:href="#CMUSerif-Roman-75" transform="translate(122.070312 0)"/>
       <use xlink:href="#CMUSerif-Roman-64" transform="translate(177.539062 0)"/>
      </g>
     </g>
    </g>
    <g id="ytick_3">
     <g id="line2d_3">
      <g>
       <use xlink:href="#m614de00432" x="17.619782" y="42.534688" style="stroke: #000000; stroke-width: 0.8"/>
      </g>
     </g>
     <g id="text_3">
      <!-- attenuation -->
      <g transform="translate(27.334469 7.2) rotate(-270) scale(0.14 -0.14)">
       <defs>
        <path id="CMUSerif-Roman-61" d="M 269 609 
Q 269 1153 909 1441 
Q 1294 1625 2088 1672 
L 2088 1906 
Q 2088 2303 1880 2514 
Q 1672 2725 1409 2725 
Q 941 2725 716 2431 
Q 906 2425 975 2329 
Q 1044 2234 1044 2138 
Q 1044 2009 964 1926 
Q 884 1844 750 1844 
Q 622 1844 537 1923 
Q 453 2003 453 2144 
Q 453 2456 736 2662 
Q 1019 2869 1422 2869 
Q 1947 2869 2297 2516 
Q 2406 2406 2461 2265 
Q 2516 2125 2522 2033 
Q 2528 1941 2528 1759 
L 2528 481 
Q 2528 444 2540 381 
Q 2553 319 2611 239 
Q 2669 159 2766 159 
Q 2997 159 2994 569 
L 2994 928 
L 3156 928 
L 3156 569 
Q 3156 228 2976 95 
Q 2797 -38 2631 -38 
Q 2419 -38 2284 118 
Q 2150 275 2131 488 
Q 2034 244 1814 86 
Q 1594 -72 1294 -72 
Q 1063 -72 845 -14 
Q 628 44 448 205 
Q 269 366 269 609 
z
M 763 616 
Q 763 378 931 225 
Q 1100 72 1338 72 
Q 1606 72 1847 280 
Q 2088 488 2088 897 
L 2088 1538 
Q 1378 1513 1070 1230 
Q 763 947 763 616 
z
" transform="scale(0.015625)"/>
        <path id="CMUSerif-Roman-74" d="M 122 2559 
L 122 2700 
Q 416 2713 611 2920 
Q 806 3128 873 3384 
Q 941 3641 947 3938 
L 1106 3938 
L 1106 2759 
L 2022 2759 
L 2022 2559 
L 1106 2559 
L 1106 781 
Q 1106 91 1538 91 
Q 1722 91 1844 280 
Q 1966 469 1966 806 
L 1966 1159 
L 2125 1159 
L 2125 794 
Q 2125 447 1965 187 
Q 1806 -72 1491 -72 
Q 1375 -72 1261 -42 
Q 1147 -13 998 64 
Q 850 141 758 330 
Q 666 519 666 794 
L 666 2559 
L 122 2559 
z
" transform="scale(0.015625)"/>
        <path id="CMUSerif-Roman-65" d="M 178 1409 
Q 178 2013 565 2441 
Q 953 2869 1509 2869 
Q 2072 2869 2364 2503 
Q 2656 2138 2656 1613 
Q 2656 1516 2631 1497 
Q 2606 1478 2497 1478 
L 709 1478 
Q 709 825 903 519 
Q 1172 91 1625 91 
Q 1688 91 1763 103 
Q 1838 116 1991 170 
Q 2144 225 2278 372 
Q 2413 519 2491 750 
Q 2509 841 2572 838 
Q 2656 838 2656 763 
Q 2656 706 2595 579 
Q 2534 453 2418 303 
Q 2303 153 2079 40 
Q 1856 -72 1588 -72 
Q 1025 -72 601 354 
Q 178 781 178 1409 
z
M 716 1613 
L 2234 1613 
Q 2234 1747 2211 1897 
Q 2188 2047 2120 2255 
Q 2053 2463 1897 2594 
Q 1741 2725 1509 2725 
Q 1406 2725 1295 2681 
Q 1184 2638 1050 2531 
Q 916 2425 822 2184 
Q 728 1944 716 1613 
z
" transform="scale(0.015625)"/>
        <path id="CMUSerif-Roman-69" d="M 213 0 
L 213 197 
Q 553 197 631 239 
Q 709 281 709 488 
L 709 2209 
Q 709 2447 629 2503 
Q 550 2559 238 2559 
L 238 2759 
L 1131 2828 
L 1131 481 
Q 1131 291 1200 244 
Q 1269 197 1581 197 
L 1581 0 
Q 928 19 916 19 
Q 828 19 213 0 
z
M 481 3944 
Q 481 4072 579 4176 
Q 678 4281 818 4281 
Q 959 4281 1059 4186 
Q 1159 4091 1159 3942 
Q 1159 3794 1059 3698 
Q 959 3603 819 3603 
Q 672 3603 576 3706 
Q 481 3809 481 3944 
z
" transform="scale(0.015625)"/>
       </defs>
       <use xlink:href="#CMUSerif-Roman-61"/>
       <use xlink:href="#CMUSerif-Roman-74" transform="translate(50 0)"/>
       <use xlink:href="#CMUSerif-Roman-74" transform="translate(88.769531 0)"/>
       <use xlink:href="#CMUSerif-Roman-65" transform="translate(127.539062 0)"/>
       <use xlink:href="#CMUSerif-Roman-6e" transform="translate(171.923828 0)"/>
       <use xlink:href="#CMUSerif-Roman-75" transform="translate(227.392578 0)"/>
       <use xlink:href="#CMUSerif-Roman-61" transform="translate(282.861328 0)"/>
       <use xlink:href="#CMUSerif-Roman-74" transform="translate(332.861328 0)"/>
       <use xlink:href="#CMUSerif-Roman-69" transform="translate(371.630859 0)"/>
       <use xlink:href="#CMUSerif-Roman-6f" transform="translate(399.316406 0)"/>
       <use xlink:href="#CMUSerif-Roman-6e" transform="translate(449.316406 0)"/>
      </g>
     </g>
    </g>
    <g id="ytick_4">
     <g id="line2d_4">
      <defs>
       <path id="maf460d9ede" d="M 0 0 
L 2 0 
" style="stroke: #000000; stroke-width: 0.6"/>
      </defs>
      <g>
       <use xlink:href="#maf460d9ede" x="17.619782" y="216.197719" style="stroke: #000000; stroke-width: 0.6"/>
      </g>
     </g>
    </g>
    <g id="ytick_5">
     <g id="line2d_5">
      <g>
       <use xlink:href="#maf460d9ede" x="17.619782" y="146.732506" style="stroke: #000000; stroke-width: 0.6"/>
      </g>
     </g>
    </g>
    <g id="ytick_6">
     <g id="line2d_6">
      <g>
       <use xlink:href="#maf460d9ede" x="17.619782" y="77.267294" style="stroke: #000000; stroke-width: 0.6"/>
      </g>
     </g>
    </g>
    <g id="ytick_7">
     <g id="line2d_7">
      <g>
       <use xlink:href="#maf460d9ede" x="17.619782" y="7.802081" style="stroke: #000000; stroke-width: 0.6"/>
      </g>
     </g>
    </g>
   </g>
   <g id="LineCollection_1"/>
   <g id="patch_3">
    <path d="M 7.2 216.197719 
L 12.409891 216.197719 
L 17.619782 216.197719 
L 17.619782 7.802081 
L 12.409891 7.802081 
L 7.2 7.802081 
L 7.2 216.197719 
z
" style="fill: none; stroke: #000000; stroke-width: 0.8; stroke-linejoin: miter; stroke-linecap: square"/>
   </g>
  </g>
 </g>
 <defs>
  <clipPath id="p3978d0ffa0">
   <rect x="7.2" y="7.802081" width="10.419782" height="208.395638"/>
  </clipPath>
 </defs>
</svg>
