<?xml version="1.0" encoding="utf-8" standalone="no"?>
<!DOCTYPE svg PUBLIC "-//W3C//DTD SVG 1.1//EN"
  "http://www.w3.org/Graphics/SVG/1.1/DTD/svg11.dtd">
<svg xmlns:xlink="http://www.w3.org/1999/xlink" width="235.31077pt" height="224.39952pt" viewBox="0 0 235.31077 224.39952" xmlns="http://www.w3.org/2000/svg" version="1.1">
 <metadata>
  <rdf:RDF xmlns:dc="http://purl.org/dc/elements/1.1/" xmlns:cc="http://creativecommons.org/ns#" xmlns:rdf="http://www.w3.org/1999/02/22-rdf-syntax-ns#">
   <cc:Work>
    <dc:type rdf:resource="http://purl.org/dc/dcmitype/StillImage"/>
    <dc:date>2026-03-10T15:09:57.705973</dc:date>
    <dc:format>image/svg+xml</dc:format>
    <dc:creator>
     <cc:Agent>
      <dc:title>Matplotlib v3.10.8, https://matplotlib.org/</dc:title>
     </cc:Agent>
    </dc:creator>
   </cc:Work>
  </rdf:RDF>
 </metadata>
 <defs>
  <style type="text/css">*{stroke-linejoin: round; stroke-linecap: butt}</style>
 </defs>
 <g id="figure_1">
  <g id="patch_1">
   <path d="M 0 224.39952 
L 235.31077 224.39952 
L 235.31077 0 
L 0 0 
L 0 224.39952 
z
" style="fill: none"/>
  </g>
  <g id="axes_1">
   <g id="patch_2">
    <path d="M 54.625625 176.013895 
L 217.88827 176.013895 
L 217.88827 12.75125 
L 54.625625 12.75125 
L 54.625625 176.013895 
z
" style="fill: none"/>
   </g>
   <g id="matplotlib.axis_1">
    <g id="xtick_1">
     <g id="line2d_1">
      <defs>
       <path id="mf6b2212e06" d="M 0 0 
L 0 3.5 
" style="stroke: #000000; stroke-width: 0.8"/>
      </defs>
      <g>
       <use xlink:href="#mf6b2212e06" x="54.625625" y="176.013895" style="stroke: #000000; stroke-width: 0.8"/>
      </g>
     </g>
     <g id="text_1">
      <!-- 0.0 -->
      <g transform="translate(44.403125 194.116395) scale(0.16 -0.16)">
       <defs>
        <path id="CMUSerif-Roman-30" d="M 250 2047 
Q 250 2988 488 3500 
Q 819 4263 1600 4263 
Q 1766 4263 1939 4217 
Q 2113 4172 2333 4000 
Q 2553 3828 2688 3547 
Q 2944 3003 2944 2047 
Q 2944 1113 2706 603 
Q 2359 -141 1594 -141 
Q 1306 -141 1014 6 
Q 722 153 538 506 
Q 250 1034 250 2047 
z
M 781 2125 
Q 781 1159 850 775 
Q 928 359 1142 179 
Q 1356 0 1594 0 
Q 1850 0 2064 192 
Q 2278 384 2344 800 
Q 2416 1209 2413 2125 
Q 2413 3016 2350 3372 
Q 2266 3788 2042 3955 
Q 1819 4122 1594 4122 
Q 1509 4122 1420 4097 
Q 1331 4072 1203 4000 
Q 1075 3928 976 3750 
Q 878 3572 831 3303 
Q 781 2956 781 2125 
z
" transform="scale(0.015625)"/>
        <path id="CMUSerif-Roman-2e" d="M 641 103 
Q 544 206 544 340 
Q 544 475 641 573 
Q 738 672 884 672 
Q 1025 672 1120 580 
Q 1216 488 1216 339 
Q 1216 191 1114 95 
Q 1013 0 884 0 
Q 738 0 641 103 
z
" transform="scale(0.015625)"/>
       </defs>
       <use xlink:href="#CMUSerif-Roman-30"/>
       <use xlink:href="#CMUSerif-Roman-2e" transform="translate(50 0)"/>
       <use xlink:href="#CMUSerif-Roman-30" transform="translate(77.783203 0)"/>
      </g>
     </g>
    </g>
    <g id="xtick_2">
     <g id="line2d_2">
      <g>
       <use xlink:href="#mf6b2212e06" x="136.256948" y="176.013895" style="stroke: #000000; stroke-width: 0.8"/>
      </g>
     </g>
     <g id="text_2">
      <!-- 0.5 -->
      <g transform="translate(126.034448 194.116395) scale(0.16 -0.16)">
       <defs>
        <path id="CMUSerif-Roman-35" d="M 319 1031 
Q 319 1222 422 1295 
Q 525 1369 634 1369 
Q 781 1369 867 1276 
Q 953 1184 953 1056 
Q 953 928 867 836 
Q 781 744 634 744 
Q 563 744 525 756 
Q 609 463 867 250 
Q 1125 38 1466 38 
Q 1894 38 2150 453 
Q 2303 722 2303 1331 
Q 2303 1869 2188 2138 
Q 2009 2547 1644 2547 
Q 1125 2547 819 2100 
Q 781 2044 738 2041 
Q 675 2041 661 2077 
Q 647 2113 647 2209 
L 647 4103 
Q 647 4256 709 4256 
Q 734 4256 788 4238 
Q 1191 4059 1638 4056 
Q 2097 4056 2509 4244 
Q 2541 4263 2559 4263 
Q 2622 4263 2625 4191 
Q 2625 4166 2573 4092 
Q 2522 4019 2412 3923 
Q 2303 3828 2162 3737 
Q 2022 3647 1817 3586 
Q 1613 3525 1388 3525 
Q 1119 3525 844 3609 
L 844 2363 
Q 1175 2688 1656 2688 
Q 2169 2688 2522 2275 
Q 2875 1863 2875 1288 
Q 2875 684 2458 271 
Q 2041 -141 1478 -141 
Q 966 -141 642 225 
Q 319 591 319 1031 
z
" transform="scale(0.015625)"/>
       </defs>
       <use xlink:href="#CMUSerif-Roman-30"/>
       <use xlink:href="#CMUSerif-Roman-2e" transform="translate(50 0)"/>
       <use xlink:href="#CMUSerif-Roman-35" transform="translate(77.783203 0)"/>
      </g>
     </g>
    </g>
    <g id="xtick_3">
     <g id="line2d_3">
      <g>
       <use xlink:href="#mf6b2212e06" x="217.88827" y="176.013895" style="stroke: #000000; stroke-width: 0.8"/>
      </g>
     </g>
     <g id="text_3">
      <!-- 1.0 -->
      <g transform="translate(207.66577 194.116395) scale(0.16 -0.16)">
       <defs>
        <path id="CMUSerif-Roman-31" d="M 569 3653 
L 569 3853 
Q 1338 3853 1734 4263 
Q 1844 4263 1862 4238 
Q 1881 4213 1881 4097 
L 1881 506 
Q 1881 316 1975 256 
Q 2069 197 2478 197 
L 2681 197 
L 2681 0 
Q 2456 19 1643 19 
Q 831 19 609 0 
L 609 197 
L 813 197 
Q 1216 197 1312 255 
Q 1409 313 1409 506 
L 1409 3822 
Q 1075 3653 569 3653 
z
" transform="scale(0.015625)"/>
       </defs>
       <use xlink:href="#CMUSerif-Roman-31"/>
       <use xlink:href="#CMUSerif-Roman-2e" transform="translate(50 0)"/>
       <use xlink:href="#CMUSerif-Roman-30" transform="translate(77.783203 0)"/>
      </g>
     </g>
    </g>
    <g id="text_4">
     <!-- $u$, $v$ -->
     <g transform="translate(119.696948 213.59952) scale(0.18 -0.18)">
      <defs>
       <path id="DejaVuSans-Oblique-75" d="M 428 1388 
L 838 3500 
L 1416 3500 
L 1006 1409 
Q 975 1256 961 1147 
Q 947 1038 947 966 
Q 947 700 1109 554 
Q 1272 409 1569 409 
Q 2031 409 2368 721 
Q 2706 1034 2809 1563 
L 3194 3500 
L 3769 3500 
L 3091 0 
L 2516 0 
L 2631 550 
Q 2388 244 2052 76 
Q 1716 -91 1338 -91 
Q 878 -91 622 161 
Q 366 413 366 863 
Q 366 956 381 1097 
Q 397 1238 428 1388 
z
" transform="scale(0.015625)"/>
       <path id="CMUSerif-Roman-2c" d="M 640 103 
Q 550 206 550 340 
Q 550 475 639 576 
Q 728 678 891 678 
Q 1081 678 1190 495 
Q 1300 313 1300 6 
Q 1300 -325 1165 -633 
Q 1031 -941 900 -1087 
Q 769 -1234 716 -1234 
Q 653 -1234 653 -1166 
Q 653 -1141 697 -1094 
Q 1156 -600 1159 6 
Q 1159 103 1147 103 
L 1131 91 
Q 1022 0 891 0 
Q 731 0 640 103 
z
" transform="scale(0.015625)"/>
       <path id="CMUSerif-Roman-20" transform="scale(0.015625)"/>
       <path id="DejaVuSans-Oblique-76" d="M 459 3500 
L 1069 3500 
L 1581 525 
L 3256 3500 
L 3866 3500 
L 1875 0 
L 1100 0 
L 459 3500 
z
" transform="scale(0.015625)"/>
      </defs>
      <use xlink:href="#DejaVuSans-Oblique-75" transform="translate(0 0.3125)"/>
      <use xlink:href="#CMUSerif-Roman-2c" transform="translate(63.378906 0.3125)"/>
      <use xlink:href="#CMUSerif-Roman-20" transform="translate(91.064453 0.3125)"/>
      <use xlink:href="#DejaVuSans-Oblique-76" transform="translate(124.316406 0.3125)"/>
     </g>
    </g>
   </g>
   <g id="matplotlib.axis_2">
    <g id="ytick_1">
     <g id="line2d_4">
      <defs>
       <path id="mc8a973370c" d="M 0 0 
L -3.5 0 
" style="stroke: #000000; stroke-width: 0.8"/>
      </defs>
      <g>
       <use xlink:href="#mc8a973370c" x="54.625625" y="176.013895" style="stroke: #000000; stroke-width: 0.8"/>
      </g>
     </g>
     <g id="text_5">
      <!-- 0.0 -->
      <g transform="translate(27.180625 181.565145) scale(0.16 -0.16)">
       <use xlink:href="#CMUSerif-Roman-30"/>
       <use xlink:href="#CMUSerif-Roman-2e" transform="translate(50 0)"/>
       <use xlink:href="#CMUSerif-Roman-30" transform="translate(77.783203 0)"/>
      </g>
     </g>
    </g>
    <g id="ytick_2">
     <g id="line2d_5">
      <g>
       <use xlink:href="#mc8a973370c" x="54.625625" y="143.361366" style="stroke: #000000; stroke-width: 0.8"/>
      </g>
     </g>
     <g id="text_6">
      <!-- 0.2 -->
      <g transform="translate(27.180625 148.912616) scale(0.16 -0.16)">
       <defs>
        <path id="CMUSerif-Roman-32" d="M 319 0 
Q 319 116 330 150 
Q 341 184 391 238 
L 1619 1606 
Q 2291 2363 2291 3022 
Q 2291 3450 2067 3756 
Q 1844 4063 1434 4063 
Q 1153 4063 915 3891 
Q 678 3719 569 3413 
Q 588 3419 653 3419 
Q 813 3419 902 3319 
Q 991 3219 991 3084 
Q 991 2913 880 2830 
Q 769 2747 659 2747 
Q 616 2747 558 2756 
Q 500 2766 409 2855 
Q 319 2944 319 3103 
Q 319 3550 658 3906 
Q 997 4263 1516 4263 
Q 2103 4263 2489 3914 
Q 2875 3566 2875 3022 
Q 2875 2831 2817 2657 
Q 2759 2484 2682 2350 
Q 2606 2216 2400 2000 
Q 2194 1784 2028 1631 
Q 1863 1478 1491 1153 
L 813 494 
L 1966 494 
Q 2528 494 2572 544 
Q 2634 634 2713 1113 
L 2875 1113 
L 2694 0 
L 319 0 
z
" transform="scale(0.015625)"/>
       </defs>
       <use xlink:href="#CMUSerif-Roman-30"/>
       <use xlink:href="#CMUSerif-Roman-2e" transform="translate(50 0)"/>
       <use xlink:href="#CMUSerif-Roman-32" transform="translate(77.783203 0)"/>
      </g>
     </g>
    </g>
    <g id="ytick_3">
     <g id="line2d_6">
      <g>
       <use xlink:href="#mc8a973370c" x="54.625625" y="110.708837" style="stroke: #000000; stroke-width: 0.8"/>
      </g>
     </g>
     <g id="text_7">
      <!-- 0.4 -->
      <g transform="translate(27.180625 116.260087) scale(0.16 -0.16)">
       <defs>
        <path id="CMUSerif-Roman-34" d="M 178 1056 
L 178 1253 
L 2144 4256 
Q 2194 4334 2272 4331 
Q 2344 4331 2359 4303 
Q 2375 4275 2375 4166 
L 2375 1253 
L 3016 1253 
L 3016 1056 
L 2375 1056 
L 2375 500 
Q 2375 316 2451 256 
Q 2528 197 2859 197 
L 2994 197 
L 2994 0 
Q 2731 19 2125 19 
Q 1522 19 1259 0 
L 1259 197 
L 1394 197 
Q 1725 197 1803 255 
Q 1881 313 1881 500 
L 1881 1056 
L 178 1056 
z
M 359 1253 
L 1919 1253 
L 1919 3641 
L 359 1253 
z
" transform="scale(0.015625)"/>
       </defs>
       <use xlink:href="#CMUSerif-Roman-30"/>
       <use xlink:href="#CMUSerif-Roman-2e" transform="translate(50 0)"/>
       <use xlink:href="#CMUSerif-Roman-34" transform="translate(77.783203 0)"/>
      </g>
     </g>
    </g>
    <g id="ytick_4">
     <g id="line2d_7">
      <g>
       <use xlink:href="#mc8a973370c" x="54.625625" y="78.056308" style="stroke: #000000; stroke-width: 0.8"/>
      </g>
     </g>
     <g id="text_8">
      <!-- 0.6 -->
      <g transform="translate(27.180625 83.607558) scale(0.16 -0.16)">
       <defs>
        <path id="CMUSerif-Roman-36" d="M 269 2022 
Q 269 3028 781 3645 
Q 1294 4263 1953 4263 
Q 2338 4263 2552 4067 
Q 2766 3872 2766 3572 
Q 2766 3406 2669 3334 
Q 2572 3263 2472 3263 
Q 2356 3263 2265 3341 
Q 2175 3419 2175 3559 
Q 2175 3847 2528 3847 
Q 2363 4103 1966 4103 
Q 1844 4103 1719 4067 
Q 1594 4031 1431 3912 
Q 1269 3794 1144 3606 
Q 1019 3419 931 3066 
Q 844 2713 844 2253 
L 844 2100 
Q 1106 2734 1643 2732 
Q 2181 2731 2553 2322 
Q 2925 1913 2925 1306 
Q 2925 684 2537 271 
Q 2150 -141 1606 -141 
Q 1363 -141 1142 -39 
Q 922 63 717 294 
Q 513 525 391 969 
Q 269 1413 269 2022 
z
M 856 1447 
Q 856 819 972 519 
Q 991 469 1033 400 
Q 1075 331 1148 242 
Q 1222 153 1344 95 
Q 1466 38 1606 38 
Q 2034 38 2241 453 
Q 2350 684 2350 1313 
Q 2350 1953 2234 2188 
Q 2038 2584 1638 2584 
Q 1369 2584 1183 2400 
Q 997 2216 926 1969 
Q 856 1722 856 1447 
z
" transform="scale(0.015625)"/>
       </defs>
       <use xlink:href="#CMUSerif-Roman-30"/>
       <use xlink:href="#CMUSerif-Roman-2e" transform="translate(50 0)"/>
       <use xlink:href="#CMUSerif-Roman-36" transform="translate(77.783203 0)"/>
      </g>
     </g>
    </g>
    <g id="ytick_5">
     <g id="line2d_8">
      <g>
       <use xlink:href="#mc8a973370c" x="54.625625" y="45.403779" style="stroke: #000000; stroke-width: 0.8"/>
      </g>
     </g>
     <g id="text_9">
      <!-- 0.8 -->
      <g transform="translate(27.180625 50.955029) scale(0.16 -0.16)">
       <defs>
        <path id="CMUSerif-Roman-38" d="M 269 966 
Q 269 1681 1191 2144 
Q 794 2413 722 2491 
Q 441 2803 441 3194 
Q 441 3641 780 3952 
Q 1119 4263 1600 4263 
Q 2059 4263 2406 3997 
Q 2753 3731 2753 3309 
Q 2753 2716 1978 2316 
Q 2491 1997 2613 1863 
Q 2925 1516 2925 1075 
Q 2925 563 2531 211 
Q 2138 -141 1594 -141 
Q 1063 -141 666 168 
Q 269 478 269 966 
z
M 588 966 
Q 588 569 886 303 
Q 1184 38 1600 38 
Q 2003 38 2304 269 
Q 2606 500 2606 844 
Q 2606 978 2561 1093 
Q 2516 1209 2427 1301 
Q 2338 1394 2283 1436 
Q 2228 1478 2125 1550 
L 1338 2047 
Q 588 1631 588 966 
z
M 722 3444 
Q 722 3138 1044 2925 
L 1838 2413 
Q 2472 2784 2472 3309 
Q 2472 3650 2212 3876 
Q 1953 4103 1594 4103 
Q 1241 4103 981 3917 
Q 722 3731 722 3444 
z
" transform="scale(0.015625)"/>
       </defs>
       <use xlink:href="#CMUSerif-Roman-30"/>
       <use xlink:href="#CMUSerif-Roman-2e" transform="translate(50 0)"/>
       <use xlink:href="#CMUSerif-Roman-38" transform="translate(77.783203 0)"/>
      </g>
     </g>
    </g>
    <g id="ytick_6">
     <g id="line2d_9">
      <g>
       <use xlink:href="#mc8a973370c" x="54.625625" y="12.75125" style="stroke: #000000; stroke-width: 0.8"/>
      </g>
     </g>
     <g id="text_10">
      <!-- 1.0 -->
      <g transform="translate(27.180625 18.3025) scale(0.16 -0.16)">
       <use xlink:href="#CMUSerif-Roman-31"/>
       <use xlink:href="#CMUSerif-Roman-2e" transform="translate(50 0)"/>
       <use xlink:href="#CMUSerif-Roman-30" transform="translate(77.783203 0)"/>
      </g>
     </g>
    </g>
    <g id="text_11">
     <!-- VCF -->
     <g transform="translate(19.690312 113.494916) rotate(-90) scale(0.18 -0.18)">
      <defs>
       <path id="CMUSerif-Roman-56" d="M 122 4172 
L 122 4372 
Q 813 4353 934 4353 
Q 1619 4353 1850 4372 
L 1850 4172 
Q 1325 4172 1325 3988 
Q 1325 3963 1363 3872 
L 2584 641 
L 3756 3725 
Q 3788 3822 3788 3853 
Q 3788 3981 3670 4073 
Q 3553 4166 3322 4172 
L 3322 4372 
Q 3822 4353 4050 4353 
Q 4375 4353 4672 4372 
L 4672 4172 
Q 4134 4166 3975 3744 
L 2547 -19 
Q 2522 -97 2497 -119 
Q 2472 -141 2394 -141 
Q 2331 -141 2298 -116 
Q 2266 -91 2234 0 
L 750 3928 
Q 688 4100 575 4136 
Q 463 4172 122 4172 
z
" transform="scale(0.015625)"/>
       <path id="CMUSerif-Roman-43" d="M 359 2188 
Q 359 3153 1018 3833 
Q 1678 4513 2584 4513 
Q 2866 4513 3116 4409 
Q 3366 4306 3481 4217 
Q 3597 4128 3763 3963 
L 4084 4434 
Q 4134 4513 4186 4513 
Q 4238 4513 4247 4483 
Q 4256 4453 4256 4359 
L 4256 2841 
Q 4256 2738 4243 2713 
Q 4231 2688 4153 2688 
Q 4091 2688 4077 2706 
Q 4063 2725 4050 2797 
Q 3953 3488 3570 3900 
Q 3188 4313 2656 4313 
Q 2503 4313 2333 4278 
Q 2163 4244 1917 4112 
Q 1672 3981 1483 3764 
Q 1294 3547 1156 3136 
Q 1019 2725 1019 2181 
Q 1019 1644 1156 1231 
Q 1294 819 1483 605 
Q 1672 391 1917 259 
Q 2163 128 2336 92 
Q 2509 56 2663 56 
Q 3213 56 3634 447 
Q 4056 838 4097 1497 
Q 4103 1528 4103 1542 
Q 4103 1556 4109 1572 
Q 4116 1588 4131 1594 
Q 4147 1600 4172 1600 
Q 4256 1600 4256 1491 
Q 4256 881 3789 370 
Q 3322 -141 2584 -141 
Q 1675 -141 1017 534 
Q 359 1209 359 2188 
z
" transform="scale(0.015625)"/>
       <path id="CMUSerif-Roman-46" d="M 213 0 
L 213 197 
L 366 197 
Q 713 197 792 255 
Q 872 313 872 500 
L 872 3853 
Q 872 4038 790 4095 
Q 709 4153 366 4153 
L 213 4153 
L 213 4353 
L 3725 4353 
L 3903 2913 
L 3744 2913 
Q 3700 3278 3642 3486 
Q 3584 3694 3453 3859 
Q 3322 4025 3101 4089 
Q 2881 4153 2522 4153 
L 1753 4153 
Q 1534 4153 1487 4108 
Q 1441 4063 1441 3897 
L 1441 2278 
L 1991 2278 
Q 2425 2278 2547 2434 
Q 2669 2591 2669 3028 
L 2828 3028 
L 2828 1331 
L 2669 1331 
Q 2669 1772 2547 1926 
Q 2425 2081 1991 2081 
L 1441 2081 
L 1441 506 
Q 1441 372 1462 320 
Q 1484 269 1618 233 
Q 1753 197 2047 197 
L 2259 197 
L 2259 0 
Q 2028 19 1184 19 
Q 438 19 213 0 
z
" transform="scale(0.015625)"/>
      </defs>
      <use xlink:href="#CMUSerif-Roman-56"/>
      <use xlink:href="#CMUSerif-Roman-43" transform="translate(75 0)"/>
      <use xlink:href="#CMUSerif-Roman-46" transform="translate(147.167969 0)"/>
     </g>
    </g>
   </g>
   <g id="line2d_10">
    <path d="M 54.625625 184.176395 
L 54.631 184.176395 
L 54.738494 176.008317 
L 56.415408 175.8993 
L 56.522903 175.880837 
L 57.990203 175.769756 
L 58.097697 175.756718 
L 59.167268 175.646036 
L 59.274762 175.633911 
L 60.365831 175.522935 
L 60.473326 175.507967 
L 61.392404 175.397541 
L 61.499898 175.386051 
L 62.408227 175.275008 
L 62.515721 175.258842 
L 63.520795 175.147771 
L 63.628289 175.130505 
L 64.439873 175.019431 
L 64.536618 175.009269 
L 65.509443 174.898386 
L 65.616938 174.883491 
L 66.374774 174.772531 
L 66.482268 174.757377 
L 67.159484 174.647524 
L 67.266978 174.629041 
L 68.040938 174.51968 
L 68.148433 174.497524 
L 68.900894 174.387524 
L 69.008389 174.365747 
L 69.658731 174.255489 
L 69.766225 174.234195 
L 70.373569 174.124281 
L 70.481064 174.105333 
L 71.142155 173.995008 
L 71.249649 173.975384 
L 71.803246 173.864417 
L 71.91074 173.844292 
L 72.518084 173.735812 
L 72.625579 173.714359 
L 73.114679 173.604249 
L 73.222173 173.579451 
L 73.791894 173.470863 
L 73.899389 173.453132 
L 74.479859 173.34212 
L 74.587353 173.326402 
L 75.076453 173.215906 
L 75.183948 173.19091 
L 75.683797 173.080194 
L 75.791292 173.051082 
L 76.253518 172.942029 
L 76.361013 172.910031 
L 76.790991 172.799522 
L 76.898485 172.778878 
L 77.344587 172.668349 
L 77.452082 172.638181 
L 77.87131 172.527879 
L 77.978805 172.493435 
L 78.532402 172.384256 
L 78.639896 172.354818 
L 79.177369 172.246296 
L 79.284863 172.226412 
L 79.725591 172.11681 
L 79.833085 172.089293 
L 80.332934 171.97904 
L 80.440429 171.945284 
L 80.822034 171.837123 
L 80.929529 171.793575 
L 81.338008 171.682538 
L 81.445502 171.652602 
L 81.870106 171.543145 
L 81.9776 171.511448 
L 82.321583 171.404138 
L 82.429077 171.368367 
L 82.810683 171.257555 
L 82.918177 171.234828 
L 83.391153 171.125367 
L 83.498647 171.088344 
L 83.960874 170.978735 
L 84.068368 170.938372 
L 84.460723 170.82894 
L 84.568218 170.802362 
L 85.019695 170.691901 
L 85.127189 170.65757 
L 85.50342 170.547919 
L 85.610914 170.515789 
L 85.938773 170.408132 
L 86.046267 170.375348 
L 86.400999 170.266571 
L 86.508493 170.223053 
L 86.965345 170.112605 
L 87.07284 170.080471 
L 87.406072 169.971453 
L 87.513567 169.937859 
L 87.954294 169.827491 
L 88.061789 169.783641 
L 88.411146 169.674634 
L 88.518641 169.636358 
L 88.841124 169.529496 
L 88.948619 169.488051 
L 89.362472 169.377335 
L 89.469967 169.346826 
L 89.765577 169.237262 
L 89.873071 169.19642 
L 90.152557 169.090502 
L 90.260051 169.046837 
L 90.673905 168.935878 
L 90.7814 168.906315 
L 91.093134 168.796189 
L 91.200628 168.762067 
L 91.598358 168.652428 
L 91.705852 168.611256 
L 92.04446 168.500236 
L 92.151955 168.46685 
L 92.420691 168.356597 
L 92.528185 168.333809 
L 92.866793 168.222949 
L 92.974287 168.181597 
L 93.30752 168.073578 
L 93.415015 168.030128 
L 93.753623 167.919037 
L 93.861117 167.880265 
L 94.172851 167.770929 
L 94.280346 167.741754 
L 94.608204 167.63404 
L 94.715698 167.591668 
L 95.075805 167.481956 
L 95.183299 167.455356 
L 95.543406 167.344946 
L 95.650901 167.2926 
L 95.882014 167.181567 
L 95.989508 167.136862 
L 96.295868 167.02676 
L 96.403362 166.988061 
L 96.747344 166.8796 
L 96.854839 166.833412 
L 97.155824 166.724469 
L 97.263318 166.694685 
L 97.601926 166.584004 
L 97.70942 166.543133 
L 98.058777 166.432414 
L 98.166272 166.401691 
L 98.499505 166.291874 
L 98.606999 166.252146 
L 98.838112 166.14131 
L 98.945607 166.099744 
L 99.294964 165.988744 
L 99.402459 165.96132 
L 99.708818 165.85304 
L 99.816312 165.806701 
L 100.090423 165.698786 
L 100.197918 165.652319 
L 100.477404 165.542795 
L 100.584898 165.484767 
L 100.869758 165.377623 
L 100.977253 165.316712 
L 101.256739 165.209852 
L 101.364233 165.157622 
L 101.665218 165.057278 
L 101.772712 164.99127 
L 102.052198 164.881956 
L 102.159692 164.838757 
L 102.412305 164.727843 
L 102.519799 164.685449 
L 102.783161 164.574939 
L 102.890655 164.536871 
L 103.197014 164.427404 
L 103.304509 164.381738 
L 103.535622 164.270659 
L 103.643117 164.231004 
L 103.879604 164.121064 
L 103.987099 164.070329 
L 104.309582 163.959812 
L 104.417077 163.907925 
L 104.728811 163.799401 
L 104.836305 163.757913 
L 105.110416 163.647639 
L 105.217911 163.611586 
L 105.416776 163.502038 
L 105.52427 163.439054 
L 105.771508 163.331161 
L 105.879002 163.306868 
L 106.142364 163.203559 
L 106.249858 163.154541 
L 106.507845 163.044257 
L 106.615339 162.993655 
L 106.851827 162.884215 
L 106.959322 162.860328 
L 107.19581 162.751248 
L 107.303304 162.704174 
L 107.58279 162.59332 
L 107.690284 162.556544 
L 107.975145 162.447133 
L 108.082639 162.394919 
L 108.319127 162.290931 
L 108.426622 162.213855 
L 108.668484 162.103066 
L 108.775979 162.049061 
L 109.017841 161.938743 
L 109.125336 161.891755 
L 109.351074 161.781006 
L 109.458569 161.712953 
L 109.73268 161.607696 
L 109.840174 161.546524 
L 110.135784 161.435709 
L 110.243279 161.389638 
L 110.452893 161.279517 
L 110.560388 161.231377 
L 110.823749 161.120449 
L 110.931244 161.079429 
L 111.19998 160.971138 
L 111.307474 160.914716 
L 111.58696 160.812481 
L 111.694454 160.747843 
L 111.968565 160.639492 
L 112.07606 160.572922 
L 112.339421 160.463075 
L 112.446916 160.412423 
L 112.65653 160.301748 
L 112.764025 160.243747 
L 113.032761 160.133957 
L 113.140256 160.079975 
L 113.360619 159.969746 
L 113.468114 159.899446 
L 113.666979 159.790671 
L 113.774473 159.73506 
L 114.075458 159.62581 
L 114.182952 159.580455 
L 114.473187 159.469763 
L 114.580682 159.402553 
L 114.827919 159.292975 
L 114.935414 159.225909 
L 115.145028 159.115761 
L 115.252522 159.051792 
L 115.494385 158.941771 
L 115.60188 158.894288 
L 115.902864 158.786308 
L 116.010359 158.696997 
L 116.311343 158.599669 
L 116.418838 158.554655 
L 116.649951 158.44924 
L 116.757445 158.382005 
L 117.015432 158.271019 
L 117.122927 158.226208 
L 117.348665 158.115214 
L 117.45616 158.058509 
L 117.6389 157.957371 
L 117.746395 157.899687 
L 117.93451 157.790078 
L 118.042005 157.700816 
L 118.283867 157.590127 
L 118.391362 157.534147 
L 118.590227 157.424481 
L 118.697721 157.378595 
L 118.896586 157.271555 
L 119.00408 157.208356 
L 119.229819 157.097302 
L 119.337313 157.019749 
L 119.541553 156.911243 
L 119.649047 156.858221 
L 119.874786 156.753116 
L 119.98228 156.693758 
L 120.159646 156.583361 
L 120.267141 156.537343 
L 120.487505 156.430095 
L 120.594999 156.358589 
L 120.852986 156.249335 
L 120.96048 156.200033 
L 121.170095 156.090581 
L 121.277589 156.002161 
L 121.514077 155.894966 
L 121.621571 155.842205 
L 121.841935 155.732316 
L 121.94943 155.684354 
L 122.153669 155.573559 
L 122.261164 155.536415 
L 122.513776 155.425619 
L 122.62127 155.369695 
L 122.81476 155.259793 
L 122.922255 155.185421 
L 123.051248 155.082187 
L 123.158743 155.018484 
L 123.287736 154.913925 
L 123.395231 154.833705 
L 123.604845 154.724986 
L 123.712339 154.66527 
L 123.932703 154.554821 
L 124.040198 154.511558 
L 124.222938 154.401352 
L 124.330433 154.323707 
L 124.507799 154.216995 
L 124.615293 154.153538 
L 124.857156 154.04326 
L 124.96465 153.974675 
L 125.195764 153.863838 
L 125.303258 153.776693 
L 125.507498 153.666408 
L 125.614992 153.618223 
L 125.856855 153.507318 
L 125.964349 153.45634 
L 126.184713 153.346016 
L 126.292207 153.296275 
L 126.496447 153.186155 
L 126.603941 153.12971 
L 126.840429 153.019655 
L 126.947924 152.954048 
L 127.146789 152.842976 
L 127.254283 152.776227 
L 127.469272 152.669504 
L 127.576767 152.60976 
L 127.850878 152.498849 
L 127.958372 152.433779 
L 128.184111 152.324759 
L 128.291605 152.255434 
L 128.479721 152.145906 
L 128.587215 152.07588 
L 128.753831 151.967012 
L 128.861326 151.908949 
L 129.054816 151.801178 
L 129.162311 151.743769 
L 129.328927 151.637441 
L 129.436422 151.553446 
L 129.629912 151.444604 
L 129.737406 151.404375 
L 129.893273 151.293563 
L 130.000768 151.226515 
L 130.188883 151.118152 
L 130.296378 151.05441 
L 130.532865 150.944167 
L 130.64036 150.882421 
L 130.83385 150.772143 
L 130.941345 150.690895 
L 131.102586 150.58229 
L 131.210081 150.487068 
L 131.392821 150.378663 
L 131.500316 150.303716 
L 131.715305 150.20213 
L 131.822799 150.139682 
L 132.086161 150.033923 
L 132.193655 149.967702 
L 132.381771 149.861703 
L 132.489265 149.792516 
L 132.795625 149.683479 
L 132.903119 149.585105 
L 133.032113 149.474155 
L 133.139607 149.428847 
L 133.327722 149.320152 
L 133.435217 149.254893 
L 133.693204 149.144437 
L 133.800698 149.063428 
L 133.983439 148.95326 
L 134.090933 148.879606 
L 134.316672 148.771898 
L 134.424166 148.678796 
L 134.649905 148.569153 
L 134.757399 148.498793 
L 134.934765 148.391501 
L 135.04226 148.318554 
L 135.214251 148.216385 
L 135.321745 148.115728 
L 135.536734 148.005755 
L 135.644229 147.923916 
L 135.773222 147.825689 
L 135.880717 147.763477 
L 136.02046 147.653245 
L 136.127954 147.55441 
L 136.321444 147.444198 
L 136.428939 147.365777 
L 136.676176 147.256528 
L 136.783671 147.16593 
L 136.993285 147.054908 
L 137.100779 146.98121 
L 137.288895 146.878603 
L 137.396389 146.783448 
L 137.525383 146.672516 
L 137.632877 146.610232 
L 137.815618 146.500569 
L 137.923112 146.395451 
L 138.105853 146.285507 
L 138.213347 146.192742 
L 138.406837 146.08241 
L 138.514332 145.982707 
L 138.6487 145.874232 
L 138.756195 145.809867 
L 138.912062 145.701037 
L 139.019556 145.644956 
L 139.153924 145.535192 
L 139.261419 145.4858 
L 139.42266 145.375067 
L 139.530155 145.266895 
L 139.669898 145.155951 
L 139.777392 145.098391 
L 139.949384 144.987563 
L 140.056878 144.924358 
L 140.201996 144.813653 
L 140.30949 144.744626 
L 140.41161 144.633609 
L 140.519104 144.555644 
L 140.642723 144.450959 
L 140.750218 144.352467 
L 140.922209 144.247111 
L 141.029703 144.18732 
L 141.142572 144.093955 
L 141.250067 143.995159 
L 141.470431 143.887676 
L 141.577925 143.798422 
L 141.696169 143.687912 
L 141.803664 143.589511 
L 141.948781 143.481215 
L 142.056276 143.396782 
L 142.169145 143.285753 
L 142.276639 143.206867 
L 142.448631 143.096423 
L 142.556125 143.015088 
L 142.625997 142.905598 
L 142.733491 142.787154 
L 142.840986 142.676558 
L 142.94848 142.591406 
L 143.115097 142.480869 
L 143.222591 142.410402 
L 143.378458 142.300362 
L 143.485953 142.228094 
L 143.690192 142.120005 
L 143.797687 142.054022 
L 143.969678 141.946941 
L 144.077172 141.865972 
L 144.243789 141.769391 
L 144.351283 141.635383 
L 144.528649 141.52722 
L 144.636144 141.444861 
L 144.80276 141.336063 
L 144.910255 141.238887 
L 145.060747 141.129343 
L 145.168241 141.047341 
L 145.329483 140.936742 
L 145.436978 140.847408 
L 145.657341 140.739327 
L 145.764836 140.656518 
L 145.909954 140.546095 
L 146.017448 140.477029 
L 146.157191 140.366129 
L 146.264685 140.309045 
L 146.404428 140.198052 
L 146.511923 140.127036 
L 146.614042 140.015946 
L 146.721537 139.916986 
L 146.882779 139.806181 
L 146.990273 139.740328 
L 147.14614 139.631332 
L 147.253635 139.577743 
L 147.393378 139.471732 
L 147.500872 139.333485 
L 147.688987 139.224701 
L 147.796482 139.132824 
L 147.920101 139.022206 
L 148.027595 138.927753 
L 148.221085 138.818837 
L 148.32858 138.746261 
L 148.446824 138.648397 
L 148.554318 138.559377 
L 148.683312 138.454344 
L 148.790806 138.37162 
L 148.898301 138.279218 
L 149.005795 138.168275 
L 149.134788 138.062431 
L 149.242283 137.949084 
L 149.39815 137.840402 
L 149.505644 137.759146 
L 149.661512 137.648798 
L 149.769006 137.532763 
L 149.914124 137.421846 
L 150.021618 137.333524 
L 150.145237 137.222909 
L 150.252731 137.165206 
L 150.424722 137.054918 
L 150.532217 136.974699 
L 150.693459 136.865335 
L 150.800953 136.770104 
L 150.946071 136.661225 
L 151.053565 136.591545 
L 151.182559 136.482211 
L 151.290053 136.379985 
L 151.392173 136.270871 
L 151.499667 136.19095 
L 151.660909 136.079932 
L 151.768404 135.976959 
L 151.908147 135.878746 
L 152.015641 135.755595 
L 152.133885 135.645201 
L 152.241379 135.568544 
L 152.397247 135.469608 
L 152.504741 135.340164 
L 152.633734 135.235303 
L 152.741229 135.151857 
L 152.92397 135.043436 
L 153.031464 134.896603 
L 153.165832 134.7916 
L 153.273327 134.720343 
L 153.375446 134.609498 
L 153.482941 134.518484 
L 153.601185 134.418272 
L 153.708679 134.304456 
L 153.966666 134.193675 
L 154.074161 134.074613 
L 154.203154 133.965373 
L 154.310649 133.892089 
L 154.488015 133.782132 
L 154.595509 133.670475 
L 154.746001 133.562358 
L 154.853496 133.451351 
L 154.993239 133.345247 
L 155.100733 133.238696 
L 155.197478 133.141559 
L 155.304973 132.993859 
L 155.407092 132.882923 
L 155.514587 132.806888 
L 155.670454 132.702908 
L 155.777949 132.575118 
L 155.880068 132.471278 
L 155.987563 132.370194 
L 156.105807 132.267045 
L 156.213301 132.192646 
L 156.342295 132.083569 
L 156.449789 131.987005 
L 156.557284 131.877305 
L 156.664778 131.797695 
L 156.81527 131.689537 
L 156.922765 131.577621 
L 157.046384 131.46805 
L 157.153878 131.374274 
L 157.293621 131.263854 
L 157.401115 131.158888 
L 157.524734 131.061676 
L 157.632229 130.934833 
L 157.782721 130.831432 
L 157.890215 130.700519 
L 158.013834 130.597669 
L 158.121329 130.412729 
L 158.261071 130.30466 
L 158.368566 130.216581 
L 158.535182 130.110551 
L 158.642677 129.978929 
L 158.728673 129.870791 
L 158.836167 129.796333 
L 158.959786 129.692592 
L 159.06728 129.513367 
L 159.185524 129.402558 
L 159.293019 129.327416 
L 159.400513 129.235828 
L 159.508008 129.097792 
L 159.642376 128.99535 
L 159.74987 128.877897 
L 159.846615 128.773586 
L 159.95411 128.639982 
L 160.04548 128.536437 
L 160.152975 128.4448 
L 160.222846 128.333937 
L 160.330341 128.240117 
L 160.448584 128.139886 
L 160.556079 128.043892 
L 160.631325 127.935913 
L 160.73882 127.812951 
L 160.910811 127.708717 
L 161.018305 127.60062 
L 161.141924 127.494253 
L 161.249419 127.418195 
L 161.405286 127.31085 
L 161.51278 127.206332 
L 161.641773 127.101207 
L 161.749268 126.998153 
L 161.89976 126.887954 
L 162.007255 126.778181 
L 162.136248 126.669183 
L 162.243743 126.521292 
L 162.335113 126.41197 
L 162.442607 126.262894 
L 162.539352 126.162079 
L 162.646847 126.06407 
L 162.791965 125.970428 
L 162.899459 125.834249 
L 163.023078 125.724377 
L 163.130572 125.625605 
L 163.26494 125.5159 
L 163.372435 125.396687 
L 163.496054 125.289229 
L 163.603548 125.188539 
L 163.737916 125.077806 
L 163.845411 124.937606 
L 163.969029 124.827666 
L 164.076524 124.705243 
L 164.189393 124.596752 
L 164.296888 124.450537 
L 164.44738 124.33968 
L 164.554874 124.262625 
L 164.678493 124.157229 
L 164.785988 124.028394 
L 164.898857 123.925103 
L 165.006351 123.804911 
L 165.11922 123.698782 
L 165.226715 123.5795 
L 165.301961 123.491124 
L 165.409456 123.311201 
L 165.506201 123.201034 
L 165.613695 123.10711 
L 165.72119 123.002181 
L 165.828684 122.876607 
L 165.90393 122.770387 
L 166.011425 122.632708 
L 166.140418 122.527196 
L 166.247913 122.388779 
L 166.366157 122.279543 
L 166.473651 122.178382 
L 166.543523 122.071237 
L 166.651017 121.923781 
L 166.763886 121.819201 
L 166.871381 121.686303 
L 166.973501 121.579942 
L 167.080995 121.459622 
L 167.166991 121.351501 
L 167.274485 121.222882 
L 167.355106 121.115688 
L 167.462601 121.000649 
L 167.537847 120.899441 
L 167.645341 120.709472 
L 167.763585 120.599687 
L 167.87108 120.485662 
L 167.940951 120.377389 
L 168.048446 120.235683 
L 168.161315 120.129073 
L 168.268809 120.010923 
L 168.413927 119.905224 
L 168.521421 119.697757 
L 168.618166 119.599208 
L 168.725661 119.451272 
L 168.817031 119.358605 
L 168.924526 119.190215 
L 169.053519 119.080363 
L 169.161014 118.963861 
L 169.230885 118.856025 
L 169.33838 118.782042 
L 169.413626 118.674326 
L 169.52112 118.524654 
L 169.644739 118.417503 
L 169.752233 118.25097 
L 169.865103 118.142842 
L 169.972597 118.000272 
L 170.053218 117.892988 
L 170.160712 117.767966 
L 170.252083 117.670741 
L 170.359577 117.556098 
L 170.488571 117.452976 
L 170.596065 117.291635 
L 170.676686 117.183222 
L 170.784181 117.038363 
L 170.843303 116.929095 
L 170.950797 116.764288 
L 171.052917 116.653325 
L 171.160411 116.497141 
L 171.278655 116.38705 
L 171.38615 116.196201 
L 171.461396 116.096147 
L 171.56889 115.977716 
L 171.724757 115.873007 
L 171.832252 115.670961 
L 171.928997 115.559929 
L 172.036491 115.423528 
L 172.143986 115.313319 
L 172.25148 115.189987 
L 172.369724 115.079534 
L 172.477219 114.905742 
L 172.552465 114.80123 
L 172.65996 114.673459 
L 172.778204 114.562692 
L 172.885698 114.425792 
L 172.993193 114.318282 
L 173.100687 114.191564 
L 173.213556 114.085282 
L 173.321051 113.8 
L 173.43392 113.689871 
L 173.541414 113.508253 
L 173.670408 113.39985 
L 173.777902 113.249742 
L 173.847774 113.1541 
L 173.955268 112.996294 
L 174.073512 112.889935 
L 174.181007 112.706257 
L 174.272377 112.595877 
L 174.379872 112.466805 
L 174.455118 112.367639 
L 174.562612 112.194762 
L 174.632484 112.085419 
L 174.739978 111.959656 
L 174.815224 111.85053 
L 174.922719 111.748019 
L 174.99259 111.644297 
L 175.100085 111.509926 
L 175.212954 111.401197 
L 175.320448 111.253158 
L 175.411819 111.147533 
L 175.519313 111.026083 
L 175.605309 110.935217 
L 175.712803 110.728611 
L 175.793424 110.619569 
L 175.900919 110.437658 
L 176.040662 110.329351 
L 176.148156 110.1975 
L 176.2664 110.089083 
L 176.373895 109.952233 
L 176.481389 109.848011 
L 176.588884 109.680997 
L 176.712502 109.574481 
L 176.819997 109.447739 
L 176.900618 109.343429 
L 177.008112 109.252631 
L 177.099482 109.168973 
L 177.206977 108.987276 
L 177.330596 108.877983 
L 177.43809 108.697269 
L 177.524086 108.594853 
L 177.63158 108.483464 
L 177.7337 108.372895 
L 177.841194 108.158917 
L 177.92719 108.048656 
L 178.034685 107.873008 
L 178.088432 107.764841 
L 178.195926 107.620162 
L 178.287297 107.511305 
L 178.394791 107.314786 
L 178.491536 107.204214 
L 178.599031 107.080071 
L 178.695776 106.979843 
L 178.80327 106.858367 
L 178.932264 106.748636 
L 179.039758 106.616568 
L 179.147253 106.512375 
L 179.254747 106.359572 
L 179.351492 106.257878 
L 179.458987 106.071116 
L 179.523483 105.975904 
L 179.630978 105.780795 
L 179.6901 105.677447 
L 179.797594 105.496309 
L 179.931962 105.387224 
L 180.039457 105.240096 
L 180.173825 105.145161 
L 180.28132 104.961814 
L 180.335067 104.888134 
L 180.442561 104.705864 
L 180.539306 104.601092 
L 180.646801 104.405999 
L 180.700548 104.308802 
L 180.808043 104.131409 
L 180.910162 104.034772 
L 181.017657 103.893198 
L 181.092903 103.786194 
L 181.200398 103.672545 
L 181.302517 103.564161 
L 181.410012 103.346996 
L 181.485258 103.246974 
L 181.592752 103.067761 
L 181.667999 102.961042 
L 181.775493 102.854512 
L 181.850739 102.743716 
L 181.958234 102.637832 
L 182.049604 102.528321 
L 182.157099 102.376337 
L 182.248469 102.273521 
L 182.355963 102.115015 
L 182.436584 102.021634 
L 182.544079 101.823287 
L 182.592451 101.731864 
L 182.699946 101.587241 
L 182.742944 101.500234 
L 182.850438 101.271326 
L 182.931059 101.17437 
L 183.038553 100.990193 
L 183.1138 100.88563 
L 183.221294 100.671868 
L 183.30729 100.571086 
L 183.414784 100.442823 
L 183.473906 100.333652 
L 183.581401 100.167095 
L 183.662022 100.057959 
L 183.769516 99.832997 
L 183.877011 99.725349 
L 183.984505 99.572729 
L 184.065126 99.465708 
L 184.17262 99.308301 
L 184.215618 99.206242 
L 184.323113 99.014965 
L 184.37686 98.910077 
L 184.484354 98.746101 
L 184.564975 98.637296 
L 184.67247 98.399496 
L 184.753091 98.294317 
L 184.860585 98.147986 
L 184.946581 98.040754 
L 185.054075 97.894022 
L 185.15082 97.790285 
L 185.258315 97.638876 
L 185.317437 97.540738 
L 185.424931 97.252349 
L 185.494803 97.167511 
L 185.602297 96.995516 
L 185.672169 96.891742 
L 185.779663 96.750969 
L 185.865659 96.64812 
L 185.973153 96.442418 
L 186.026901 96.334677 
L 186.134395 96.157403 
L 186.220391 96.049635 
L 186.327885 95.863277 
L 186.413881 95.758523 
L 186.521375 95.572443 
L 186.601996 95.486063 
L 186.709491 95.288052 
L 186.779362 95.194547 
L 186.886857 94.984813 
L 186.951353 94.877656 
L 187.058848 94.750649 
L 187.150218 94.644799 
L 187.257713 94.42842 
L 187.338333 94.332854 
L 187.445828 94.183327 
L 187.510325 94.07508 
L 187.617819 93.937378 
L 187.714564 93.828523 
L 187.822059 93.582235 
L 187.90268 93.480269 
L 188.010174 93.273149 
L 188.09617 93.170428 
L 188.203664 92.967101 
L 188.28966 92.882824 
L 188.397154 92.618557 
L 188.467026 92.510739 
L 188.57452 92.296038 
L 188.628267 92.218137 
L 188.735762 92.002304 
L 188.821757 91.901608 
L 188.929252 91.710909 
L 188.977625 91.627165 
L 189.085119 91.433743 
L 189.181864 91.33107 
L 189.289359 91.126884 
L 189.353855 91.03241 
L 189.46135 90.723663 
L 189.520472 90.624475 
L 189.627966 90.414922 
L 189.730086 90.321407 
L 189.83758 90.069321 
L 189.928951 89.960058 
L 190.036445 89.799474 
L 190.106317 89.691397 
L 190.213811 89.491122 
L 190.262184 89.388104 
L 190.369678 89.146035 
L 190.450299 89.04331 
L 190.557794 88.82036 
L 190.638415 88.716053 
L 190.745909 88.531993 
L 190.778157 88.42165 
L 190.885652 88.294382 
L 190.907151 88.225861 
L 191.014645 87.896633 
L 191.11139 87.786006 
L 191.218885 87.560468 
L 191.30488 87.459164 
L 191.412375 87.23111 
L 191.471497 87.120934 
L 191.578991 86.925271 
L 191.643488 86.825769 
L 191.750983 86.536756 
L 191.815479 86.437752 
L 191.922974 86.12388 
L 191.99822 86.038693 
L 192.105714 85.805694 
L 192.186335 85.712142 
L 192.29383 85.396346 
L 192.347577 85.289668 
L 192.455072 84.980364 
L 192.514194 84.88817 
L 192.621688 84.741376 
L 192.664686 84.66142 
L 192.77218 84.481678 
L 192.815178 84.37934 
L 192.922673 84.173312 
L 192.992544 84.072273 
L 193.100039 83.858416 
L 193.153786 83.75222 
L 193.26128 83.5185 
L 193.315028 83.439424 
L 193.422522 83.252567 
L 193.524642 83.152439 
L 193.632136 82.923216 
L 193.723507 82.814128 
L 193.831001 82.63474 
L 193.873999 82.543861 
L 193.981493 82.323847 
L 194.024491 82.240411 
L 194.131986 82.064125 
L 194.164234 81.980575 
L 194.271729 81.773796 
L 194.346975 81.664808 
L 194.454469 81.4739 
L 194.481343 81.405688 
L 194.588837 81.127064 
L 194.647959 81.022014 
L 194.755454 80.67378 
L 194.803826 80.588185 
L 194.911321 80.301868 
L 194.986567 80.193198 
L 195.094061 79.994802 
L 195.163933 79.886143 
L 195.271427 79.619725 
L 195.325175 79.521635 
L 195.432669 79.196639 
L 195.491791 79.102378 
L 195.599286 78.853007 
L 195.679907 78.751043 
L 195.787401 78.411739 
L 195.825024 78.312984 
L 195.932519 78.096462 
L 195.970142 77.989029 
L 196.077636 77.74177 
L 196.147508 77.64764 
L 196.255002 77.440218 
L 196.308749 77.334351 
L 196.416244 77.158108 
L 196.507614 77.078759 
L 196.615109 76.782045 
L 196.663481 76.694082 
L 196.770976 76.417223 
L 196.813973 76.307027 
L 196.921468 76.031218 
L 196.98059 75.938652 
L 197.088084 75.707216 
L 197.136457 75.623735 
L 197.243951 75.436568 
L 197.313823 75.331972 
L 197.421317 75.101096 
L 197.501938 74.997706 
L 197.609433 74.835014 
L 197.679304 74.724081 
L 197.786799 74.400881 
L 197.824422 74.290238 
L 197.931916 74.036175 
L 197.969539 73.951732 
L 198.077034 73.73266 
L 198.109282 73.666345 
L 198.216777 73.342382 
L 198.302772 73.236631 
L 198.410267 72.901747 
L 198.485513 72.800628 
L 198.593007 72.536468 
L 198.64138 72.426204 
L 198.748874 72.247749 
L 198.786498 72.147103 
L 198.893992 71.951344 
L 198.93699 71.85094 
L 199.044484 71.638155 
L 199.098232 71.536477 
L 199.205726 71.239525 
L 199.291722 71.134602 
L 199.399216 70.872276 
L 199.452963 70.779083 
L 199.560458 70.525382 
L 199.61958 70.425183 
L 199.727074 70.167875 
L 199.759323 70.113282 
L 199.866817 69.75444 
L 199.936689 69.654409 
L 200.044183 69.397902 
L 200.09793 69.291706 
L 200.205425 69.00381 
L 200.243048 68.894115 
L 200.350542 68.679329 
L 200.409664 68.571511 
L 200.517159 68.349053 
L 200.570906 68.245187 
L 200.678401 67.986887 
L 200.742897 67.88603 
L 200.850392 67.73506 
L 200.904139 67.648697 
L 201.011634 67.378464 
L 201.081505 67.267517 
L 201.189 66.937226 
L 201.226623 66.838237 
L 201.334117 66.534563 
L 201.403989 66.424721 
L 201.511483 66.16616 
L 201.56523 66.069749 
L 201.672725 65.739558 
L 201.694224 65.653654 
L 201.801718 65.32879 
L 201.850091 65.229864 
L 201.957585 64.831644 
L 202.005958 64.737479 
L 202.113452 64.480788 
L 202.183324 64.392171 
L 202.290818 64.095973 
L 202.328441 63.98676 
L 202.435936 63.728787 
L 202.468184 63.636997 
L 202.575679 63.378487 
L 202.613302 63.296647 
L 202.720796 63.002061 
L 202.769169 62.9033 
L 202.876663 62.616316 
L 202.925036 62.515308 
L 203.03253 62.214864 
L 203.091652 62.106583 
L 203.199147 61.80101 
L 203.252894 61.700198 
L 203.360388 61.466451 
L 203.41951 61.394417 
L 203.527005 61.088139 
L 203.591502 61.000765 
L 203.698996 60.64919 
L 203.736619 60.547655 
L 203.844114 60.231667 
L 203.881737 60.126299 
L 203.989231 59.865399 
L 204.026854 59.765498 
L 204.134349 59.407812 
L 204.171972 59.33282 
L 204.279466 59.040276 
L 204.333214 58.939844 
L 204.440708 58.576494 
L 204.494455 58.485345 
L 204.60195 58.144682 
L 204.655697 58.035765 
L 204.763192 57.724409 
L 204.822314 57.62147 
L 204.929808 57.410091 
L 204.98893 57.345835 
L 205.096425 57.00432 
L 205.155547 56.898262 
L 205.263041 56.554854 
L 205.322163 56.448714 
L 205.429658 56.106847 
L 205.472655 56.027653 
L 205.58015 55.655627 
L 205.601649 55.576295 
L 205.709143 55.257276 
L 205.784389 55.153892 
L 205.891884 54.925734 
L 205.934882 54.817483 
L 206.042376 54.530951 
L 206.090749 54.426125 
L 206.187494 54.116809 
L 206.268115 54.009236 
L 206.375609 53.707207 
L 206.466979 53.61159 
L 206.574474 53.294182 
L 206.633596 53.202689 
L 206.74109 53.015182 
L 206.800212 52.933196 
L 206.907707 52.434775 
L 206.988328 52.331414 
L 207.095822 51.972775 
L 207.133445 51.865894 
L 207.24094 51.442738 
L 207.289312 51.332792 
L 207.396807 50.936385 
L 207.461304 50.837703 
L 207.568798 50.610799 
L 207.590297 50.505658 
L 207.697791 50.125368 
L 207.756913 50.015092 
L 207.864408 49.691127 
L 207.934279 49.590334 
L 208.041774 49.359111 
L 208.095521 49.251121 
L 208.203016 48.981721 
L 208.283637 48.878756 
L 208.391131 48.567645 
L 208.455628 48.485973 
L 208.563122 48.148232 
L 208.60612 48.039331 
L 208.713615 47.668616 
L 208.756612 47.577781 
L 208.864107 47.238917 
L 208.896355 47.136597 
L 209.00385 46.803337 
L 209.046847 46.709818 
L 209.154342 46.343166 
L 209.19734 46.23787 
L 209.304834 45.876171 
L 209.337083 45.771054 
L 209.444577 45.328137 
L 209.476825 45.221238 
L 209.58432 44.929917 
L 209.664941 44.820008 
L 209.772435 44.335674 
L 209.810058 44.236503 
L 209.917553 43.892863 
L 209.949801 43.791599 
L 210.057296 43.397764 
L 210.078795 43.293765 
L 210.186289 42.858399 
L 210.213163 42.765668 
L 210.320657 42.415761 
L 210.36903 42.318664 
L 210.476524 42.008879 
L 210.530272 41.902442 
L 210.637766 41.597784 
L 210.675389 41.499354 
L 210.782884 41.182332 
L 210.825881 41.078512 
L 210.933376 40.518259 
L 210.976374 40.421495 
L 211.083868 39.850975 
L 211.121491 39.740066 
L 211.228986 39.308777 
L 211.255859 39.219139 
L 211.363354 38.665858 
L 211.400977 38.561202 
L 211.508471 38.289161 
L 211.567593 38.212063 
L 211.675088 37.686363 
L 211.696587 37.619424 
L 211.804081 37.276961 
L 211.847079 37.165979 
L 211.954574 36.779279 
L 211.992197 36.678435 
L 212.099691 36.297631 
L 212.158813 36.1921 
L 212.266308 35.850588 
L 212.309306 35.739834 
L 212.4168 35.313467 
L 212.459798 35.205277 
L 212.567292 34.610232 
L 212.599541 34.512827 
L 212.707035 33.926221 
L 212.755408 33.819914 
L 212.862902 33.431384 
L 212.889776 33.342327 
L 212.99727 32.811603 
L 213.013394 32.715199 
L 213.120889 32.110888 
L 213.153137 32.002132 
L 213.260632 31.517945 
L 213.319754 31.425522 
L 213.427248 30.809646 
L 213.448747 30.745251 
L 213.556242 30.332407 
L 213.577741 30.248277 
L 213.685235 29.650473 
L 213.695985 29.611871 
L 213.803479 29.120235 
L 213.835727 29.034755 
L 213.943222 28.551454 
L 213.980845 28.460846 
L 214.088339 27.909299 
L 214.109838 27.806355 
L 214.217333 27.276239 
L 214.233457 27.18883 
L 214.340952 26.350224 
L 214.367825 26.256903 
L 214.47532 25.8037 
L 214.507568 25.696633 
L 214.615063 24.999105 
L 214.636561 24.975133 
L 214.727932 24.620305 
L 214.792428 24.52211 
L 214.883799 24.002309 
L 214.916047 23.948255 
L 215.023542 23.432897 
L 215.05579 23.369687 
L 215.163284 22.881835 
L 215.195533 22.779114 
L 215.303027 22.387877 
L 215.329901 22.331745 
L 215.437395 21.852227 
L 215.480393 21.744815 
L 215.587888 21.323135 
L 215.63626 21.234972 
L 215.743755 20.768784 
L 215.770628 20.692607 
L 215.878123 20.316139 
L 215.921121 20.238005 
L 216.028615 20.008449 
L 216.050114 19.909122 
L 216.157609 19.427843 
L 216.189857 19.357253 
L 216.265103 19.003808 
L 216.345724 18.926669 
L 216.453218 18.391376 
L 216.496216 18.360636 
L 216.603711 17.883468 
L 216.635959 17.777181 
L 216.743454 17.19466 
L 216.781077 17.096712 
L 216.888571 16.679233 
L 216.963817 16.568558 
L 217.071312 16.183952 
L 217.092811 16.143675 
L 217.184181 15.774632 
L 217.254052 15.681605 
L 217.340048 15.455792 
L 217.426044 15.346707 
L 217.533538 14.81686 
L 217.555037 14.763857 
L 217.662532 14.101841 
L 217.673281 14.025617 
L 217.775401 13.443946 
L 217.802274 13.350701 
L 217.88827 4.598293 
L 217.88827 4.598293 
" clip-path="url(#p34e97b345c)" style="fill: none; stroke: #67c7d5; stroke-width: 2; stroke-linecap: square"/>
   </g>
   <g id="line2d_11">
    <path d="M 54.625625 184.167177 
L 54.631 184.167177 
L 54.738494 175.976155 
L 55.066352 175.865979 
L 55.173847 175.817879 
L 55.555452 175.707032 
L 55.662947 175.677307 
L 56.049927 175.569857 
L 56.071426 175.561194 
L 56.856136 175.451099 
L 56.96363 175.409323 
L 57.302238 175.301477 
L 57.409733 175.246964 
L 57.699968 175.138278 
L 57.807462 175.111429 
L 58.855534 175.001619 
L 58.963028 174.951595 
L 59.194141 174.842368 
L 59.301636 174.800339 
L 59.720864 174.689348 
L 59.817609 174.663288 
L 60.510949 174.55315 
L 60.618443 174.519678 
L 60.962426 174.408647 
L 61.06992 174.364757 
L 61.37628 174.256523 
L 61.483774 174.214816 
L 62.273859 174.104658 
L 62.381353 174.070292 
L 62.601717 173.959306 
L 62.709211 173.92595 
L 62.951074 173.817422 
L 63.058568 173.787295 
L 63.536919 173.679303 
L 63.644413 173.631131 
L 63.864777 173.521617 
L 63.972272 173.46912 
L 64.294755 173.359889 
L 64.40225 173.308974 
L 64.902099 173.201182 
L 65.009594 173.140742 
L 65.262206 173.031464 
L 65.3697 172.995486 
L 65.708308 172.887504 
L 65.815802 172.845743 
L 66.272654 172.736751 
L 66.380148 172.682542 
L 66.654259 172.575217 
L 66.761754 172.513646 
L 67.04124 172.403618 
L 67.078863 172.386613 
L 67.51959 172.280713 
L 67.627085 172.22099 
L 67.874322 172.110903 
L 67.981816 172.063023 
L 68.229054 171.953456 
L 68.266677 171.935856 
L 68.632158 171.827338 
L 68.739653 171.754869 
L 68.954642 171.643859 
L 69.062136 171.58673 
L 69.454491 171.478016 
L 69.561986 171.404374 
L 69.841471 171.294842 
L 69.948966 171.230691 
L 70.206953 171.125706 
L 70.314447 171.066542 
L 70.696053 170.964535 
L 70.803547 170.90141 
L 71.018536 170.79031 
L 71.126031 170.70931 
L 71.319521 170.599954 
L 71.427015 170.553251 
L 71.674253 170.443301 
L 71.781747 170.374538 
L 71.991361 170.26695 
L 72.098856 170.218208 
L 72.356843 170.107744 
L 72.464337 170.043059 
L 72.679326 169.932001 
L 72.786821 169.863428 
L 73.044807 169.753954 
L 73.152302 169.69647 
L 73.437162 169.585492 
L 73.544657 169.528868 
L 73.770395 169.419842 
L 73.87789 169.364975 
L 73.996134 169.261126 
L 74.049881 169.222975 
L 74.297118 169.115473 
L 74.404613 169.05712 
L 74.598103 168.9465 
L 74.705597 168.856486 
L 74.952835 168.74849 
L 75.060329 168.694249 
L 75.296817 168.586259 
L 75.404312 168.516841 
L 75.624675 168.407946 
L 75.73217 168.360959 
L 75.995531 168.251266 
L 76.097651 168.199303 
L 76.258893 168.094025 
L 76.366387 168.027225 
L 76.495381 167.922981 
L 76.602875 167.857013 
L 76.850113 167.752752 
L 76.957607 167.690701 
L 77.172596 167.580242 
L 77.280091 167.494125 
L 77.489705 167.384923 
L 77.597199 167.326357 
L 77.865936 167.215609 
L 77.97343 167.134425 
L 78.107798 167.029302 
L 78.215293 166.977098 
L 78.430282 166.86682 
L 78.532402 166.800636 
L 78.704393 166.691598 
L 78.811887 166.604258 
L 79.010752 166.495226 
L 79.118247 166.426696 
L 79.322486 166.324072 
L 79.429981 166.260405 
L 79.585848 166.154007 
L 79.693342 166.103787 
L 79.865333 166.00621 
L 79.972828 165.934105 
L 80.155568 165.825116 
L 80.263063 165.713493 
L 80.499551 165.603524 
L 80.607045 165.564834 
L 80.848908 165.455921 
L 80.945653 165.410977 
L 81.144518 165.301065 
L 81.252012 165.209264 
L 81.472376 165.104096 
L 81.579871 164.994821 
L 81.778735 164.886475 
L 81.88623 164.798176 
L 82.036722 164.687998 
L 82.144217 164.645348 
L 82.343082 164.53449 
L 82.450576 164.474579 
L 82.611818 164.363766 
L 82.719312 164.302452 
L 82.885929 164.201466 
L 82.993423 164.11137 
L 83.143916 164.007086 
L 83.25141 163.922388 
L 83.450275 163.813038 
L 83.557769 163.765236 
L 83.708262 163.654299 
L 83.815756 163.579875 
L 83.993122 163.47887 
L 84.100617 163.410255 
L 84.310231 163.308631 
L 84.417725 163.225018 
L 84.62734 163.116395 
L 84.734834 163.022017 
L 84.853078 162.911429 
L 84.960573 162.861376 
L 85.11644 162.751663 
L 85.223934 162.666918 
L 85.369052 162.562106 
L 85.476546 162.468909 
L 85.648537 162.358844 
L 85.756032 162.289312 
L 85.874276 162.182665 
L 85.98177 162.069042 
L 86.105389 161.960135 
L 86.212884 161.915651 
L 86.352626 161.805206 
L 86.454746 161.72178 
L 86.567615 161.615326 
L 86.66436 161.504714 
L 86.820227 161.397741 
L 86.927722 161.345767 
L 87.083589 161.237393 
L 87.191083 161.153342 
L 87.416822 161.042893 
L 87.524316 160.972273 
L 87.610312 160.865219 
L 87.717807 160.79313 
L 87.868299 160.687224 
L 87.965044 160.595973 
L 88.201532 160.484995 
L 88.309026 160.375995 
L 88.448769 160.267806 
L 88.556264 160.171332 
L 88.728255 160.064613 
L 88.835749 159.96025 
L 88.991616 159.850988 
L 89.099111 159.77358 
L 89.287226 159.670228 
L 89.394721 159.586803 
L 89.529089 159.476717 
L 89.636583 159.412551 
L 89.808575 159.303368 
L 89.916069 159.230345 
L 90.104184 159.123192 
L 90.211679 158.99783 
L 90.372921 158.90138 
L 90.464291 158.784143 
L 90.620158 158.674696 
L 90.727652 158.569816 
L 90.845896 158.466694 
L 90.953391 158.355437 
L 91.125382 158.258318 
L 91.232877 158.116353 
L 91.394118 158.007709 
L 91.501613 157.938414 
L 91.652105 157.830037 
L 91.7596 157.753225 
L 91.899343 157.655043 
L 92.006837 157.566139 
L 92.130456 157.456398 
L 92.23795 157.407879 
L 92.345445 157.297212 
L 92.452939 157.149118 
L 92.565808 157.0508 
L 92.673303 156.952726 
L 92.764673 156.848958 
L 92.872168 156.74116 
L 92.985037 156.643751 
L 93.092531 156.519482 
L 93.280647 156.418548 
L 93.388141 156.325685 
L 93.522509 156.219055 
L 93.630004 156.120072 
L 93.818119 156.010888 
L 93.925614 155.935909 
L 94.070731 155.827779 
L 94.178226 155.72862 
L 94.28572 155.651574 
L 94.393215 155.523857 
L 94.602829 155.41276 
L 94.710324 155.327344 
L 94.855441 155.218449 
L 94.962936 155.152557 
L 95.086554 155.056544 
L 95.194049 154.911214 
L 95.306918 154.805276 
L 95.414413 154.700327 
L 95.591779 154.590394 
L 95.699273 154.49401 
L 95.817517 154.400089 
L 95.925011 154.257409 
L 96.075504 154.147265 
L 96.182998 154.018586 
L 96.290493 153.910392 
L 96.397987 153.80129 
L 96.602227 153.691712 
L 96.709721 153.570575 
L 96.854839 153.460493 
L 96.962333 153.369374 
L 97.139699 153.258461 
L 97.247194 153.130346 
L 97.338564 153.037723 
L 97.446059 152.88502 
L 97.580427 152.777001 
L 97.687921 152.620879 
L 97.827664 152.511097 
L 97.935159 152.417341 
L 98.069527 152.307096 
L 98.177021 152.223347 
L 98.322139 152.112886 
L 98.429633 151.98792 
L 98.553252 151.879417 
L 98.660746 151.788902 
L 98.757492 151.680164 
L 98.864986 151.583141 
L 98.972481 151.474667 
L 99.079975 151.37207 
L 99.246592 151.262656 
L 99.354086 151.126126 
L 99.504578 151.021113 
L 99.612073 150.903111 
L 99.724942 150.795064 
L 99.832437 150.6671 
L 99.988304 150.573481 
L 100.095798 150.47203 
L 100.208667 150.36157 
L 100.316162 150.261996 
L 100.477404 150.152336 
L 100.584898 150.02734 
L 100.730016 149.918214 
L 100.83751 149.797055 
L 100.961129 149.687876 
L 101.068623 149.561165 
L 101.213741 149.451303 
L 101.321235 149.334211 
L 101.514725 149.230177 
L 101.62222 149.14962 
L 101.72434 149.03938 
L 101.831834 148.958942 
L 101.939329 148.860863 
L 102.046823 148.783883 
L 102.143568 148.683192 
L 102.251063 148.583168 
L 102.347808 148.472562 
L 102.449928 148.351285 
L 102.58967 148.242605 
L 102.697165 148.075527 
L 102.804659 147.971512 
L 102.912154 147.850683 
L 103.035773 147.75768 
L 103.143267 147.653558 
L 103.250762 147.542815 
L 103.358256 147.442204 
L 103.503374 147.333526 
L 103.610868 147.225394 
L 103.745236 147.11468 
L 103.852731 147.013671 
L 103.970975 146.905119 
L 104.078469 146.764312 
L 104.180589 146.663307 
L 104.288084 146.575381 
L 104.411702 146.482304 
L 104.519197 146.376218 
L 104.610567 146.266043 
L 104.718062 146.160154 
L 104.847055 146.064995 
L 104.954549 145.951368 
L 105.024421 145.85434 
L 105.131915 145.681907 
L 105.277033 145.572365 
L 105.384527 145.484031 
L 105.540394 145.3739 
L 105.647889 145.305627 
L 105.776882 145.202841 
L 105.884377 145.113903 
L 105.981122 145.005613 
L 106.088616 144.907805 
L 106.196111 144.810119 
L 106.303605 144.721602 
L 106.40035 144.622488 
L 106.507845 144.513846 
L 106.636838 144.406248 
L 106.744333 144.283735 
L 106.88945 144.175215 
L 106.996945 144.065524 
L 107.056067 143.963429 
L 107.163561 143.84065 
L 107.265681 143.730321 
L 107.373176 143.627779 
L 107.49142 143.527759 
L 107.598914 143.416987 
L 107.711783 143.311163 
L 107.819278 143.181132 
L 107.948271 143.070251 
L 108.055766 142.986771 
L 108.16326 142.887387 
L 108.270755 142.720119 
L 108.410498 142.610655 
L 108.517992 142.517123 
L 108.65236 142.413029 
L 108.759855 142.280956 
L 108.872724 142.176044 
L 108.980218 142.06683 
L 109.114587 141.960618 
L 109.222081 141.858556 
L 109.302702 141.753224 
L 109.410196 141.618892 
L 109.544565 141.53248 
L 109.652059 141.409118 
L 109.754179 141.298995 
L 109.861673 141.093829 
L 109.963793 140.982844 
L 110.071288 140.854613 
L 110.135784 140.757149 
L 110.243279 140.655059 
L 110.340024 140.545291 
L 110.447518 140.438666 
L 110.544263 140.338669 
L 110.651758 140.229057 
L 110.780751 140.123559 
L 110.888246 139.956084 
L 110.990366 139.84793 
L 111.081736 139.734466 
L 111.178481 139.631063 
L 111.285975 139.481014 
L 111.388095 139.372563 
L 111.49559 139.268171 
L 111.651457 139.15796 
L 111.758951 139.013477 
L 111.866446 138.916064 
L 111.97394 138.818106 
L 112.07606 138.712444 
L 112.183554 138.5366 
L 112.26955 138.444934 
L 112.377045 138.277241 
L 112.436167 138.166612 
L 112.543661 138.059564 
L 112.613532 137.95305 
L 112.721027 137.833605 
L 112.801648 137.73309 
L 112.909142 137.529593 
L 113.011262 137.427419 
L 113.118757 137.333778 
L 113.226251 137.230525 
L 113.333746 137.10109 
L 113.494987 136.990218 
L 113.602482 136.846251 
L 113.726101 136.736945 
L 113.833595 136.589482 
L 113.989462 136.481876 
L 114.096957 136.335507 
L 114.231325 136.229504 
L 114.338819 136.097814 
L 114.440939 135.991235 
L 114.548433 135.904886 
L 114.618305 135.797256 
L 114.71505 135.662175 
L 114.827919 135.554754 
L 114.935414 135.409505 
L 115.032159 135.323776 
L 115.139653 135.186831 
L 115.284771 135.086004 
L 115.392265 134.984767 
L 115.472886 134.879267 
L 115.580381 134.734419 
L 115.671751 134.632363 
L 115.779245 134.461833 
L 115.897489 134.354254 
L 116.004984 134.242789 
L 116.074855 134.139714 
L 116.18235 133.986732 
L 116.246847 133.904513 
L 116.354341 133.819491 
L 116.413463 133.708902 
L 116.520957 133.624761 
L 116.617703 133.519933 
L 116.725197 133.393396 
L 116.891814 133.284588 
L 116.999308 133.196907 
L 117.074554 133.088521 
L 117.182049 132.966262 
L 117.321792 132.862007 
L 117.429286 132.74778 
L 117.531406 132.644334 
L 117.633526 132.481675 
L 117.730271 132.372339 
L 117.837765 132.221165 
L 117.94526 132.110299 
L 118.052754 131.918358 
L 118.13875 131.81294 
L 118.246244 131.699749 
L 118.299991 131.594089 
L 118.407486 131.44296 
L 118.482732 131.335517 
L 118.590227 131.175156 
L 118.670847 131.065002 
L 118.778342 130.898071 
L 118.832089 130.78818 
L 118.939584 130.66316 
L 119.01483 130.581027 
L 119.122324 130.355698 
L 119.229819 130.244777 
L 119.337313 130.138441 
L 119.423309 130.027462 
L 119.530803 129.883956 
L 119.616799 129.780725 
L 119.724294 129.639685 
L 119.778041 129.534398 
L 119.885535 129.416608 
L 119.998405 129.30568 
L 120.105899 129.211765 
L 120.213394 129.100972 
L 120.320888 128.965207 
L 120.428383 128.856865 
L 120.535877 128.749248 
L 120.659496 128.649593 
L 120.76699 128.522922 
L 120.858361 128.436693 
L 120.965855 128.369154 
L 121.084099 128.263176 
L 121.191593 128.117409 
L 121.315212 128.013546 
L 121.422707 127.877164 
L 121.497953 127.768372 
L 121.605447 127.635575 
L 121.696818 127.524887 
L 121.804312 127.397907 
L 121.863434 127.289622 
L 121.970929 127.14381 
L 122.024676 127.035102 
L 122.13217 126.86063 
L 122.212791 126.765547 
L 122.320286 126.627139 
L 122.486902 126.5195 
L 122.594397 126.400388 
L 122.658893 126.297659 
L 122.766388 126.143799 
L 122.868508 126.033274 
L 122.976002 125.927383 
L 123.051248 125.816388 
L 123.158743 125.686646 
L 123.271612 125.57909 
L 123.379107 125.443412 
L 123.475852 125.335089 
L 123.583346 125.208462 
L 123.70159 125.109443 
L 123.809085 124.988286 
L 123.911204 124.878899 
L 124.018699 124.767565 
L 124.131568 124.657973 
L 124.239063 124.555548 
L 124.325058 124.447961 
L 124.432553 124.301965 
L 124.529298 124.193777 
L 124.636792 124.043415 
L 124.690539 123.933928 
L 124.798034 123.845406 
L 124.905528 123.742624 
L 125.013023 123.582991 
L 125.104393 123.473411 
L 125.211888 123.394432 
L 125.308633 123.304899 
L 125.416127 123.11947 
L 125.4645 123.009397 
L 125.571994 122.868641 
L 125.674114 122.762381 
L 125.781609 122.54703 
L 125.856855 122.439453 
L 125.964349 122.25028 
L 126.04497 122.141139 
L 126.152465 122.012203 
L 126.292207 121.901347 
L 126.399702 121.780761 
L 126.539445 121.670344 
L 126.646939 121.57564 
L 126.732935 121.469645 
L 126.840429 121.31571 
L 126.92105 121.225379 
L 127.028545 121.087914 
L 127.162913 120.977784 
L 127.270407 120.795648 
L 127.377902 120.685999 
L 127.485396 120.58668 
L 127.576767 120.481239 
L 127.668137 120.2729 
L 127.759507 120.172953 
L 127.867002 120.073453 
L 127.942248 119.966049 
L 128.049743 119.798813 
L 128.146488 119.705015 
L 128.253982 119.572794 
L 128.329228 119.473799 
L 128.420599 119.332264 
L 128.495845 119.223341 
L 128.603339 119.073943 
L 128.68396 118.963478 
L 128.791455 118.80468 
L 128.855951 118.695561 
L 128.963446 118.527048 
L 129.011818 118.418462 
L 129.119313 118.295931 
L 129.199934 118.186713 
L 129.307428 118.022987 
L 129.441796 117.913901 
L 129.543916 117.739901 
L 129.667535 117.644804 
L 129.775029 117.496534 
L 129.839526 117.387693 
L 129.94702 117.204584 
L 130.006142 117.108115 
L 130.113637 116.961288 
L 130.210382 116.85224 
L 130.317876 116.736716 
L 130.393123 116.63557 
L 130.500617 116.531773 
L 130.581238 116.444245 
L 130.688732 116.286413 
L 130.796227 116.18013 
L 130.903721 116.015409 
L 130.984342 115.933711 
L 131.091837 115.806599 
L 131.172458 115.697418 
L 131.279952 115.566241 
L 131.360573 115.461222 
L 131.468068 115.300762 
L 131.591686 115.195328 
L 131.699181 115.057148 
L 131.806675 114.949569 
L 131.91417 114.808021 
L 131.994791 114.702672 
L 132.102285 114.488335 
L 132.182906 114.400655 
L 132.2904 114.20673 
L 132.39252 114.098297 
L 132.500015 113.942381 
L 132.629008 113.837719 
L 132.736503 113.741483 
L 132.843997 113.640844 
L 132.951492 113.453694 
L 133.042862 113.343685 
L 133.150356 113.247217 
L 133.236352 113.151173 
L 133.343847 112.98912 
L 133.424467 112.882725 
L 133.531962 112.729369 
L 133.607208 112.621607 
L 133.714703 112.490594 
L 133.779199 112.383557 
L 133.886694 112.263719 
L 133.945816 112.165437 
L 134.05331 112.034995 
L 134.166179 111.934298 
L 134.273674 111.756277 
L 134.365044 111.646743 
L 134.472539 111.498818 
L 134.547785 111.39725 
L 134.655279 111.261962 
L 134.768149 111.15461 
L 134.875643 110.979694 
L 134.977763 110.874279 
L 135.085257 110.756349 
L 135.23575 110.651754 
L 135.343244 110.457447 
L 135.402366 110.36179 
L 135.509861 110.246564 
L 135.601231 110.136974 
L 135.708726 109.978634 
L 135.81622 109.873321 
L 135.923715 109.741049 
L 136.036584 109.638272 
L 136.144078 109.498322 
L 136.267697 109.389132 
L 136.375191 109.265512 
L 136.482686 109.16205 
L 136.59018 108.997283 
L 136.708424 108.892364 
L 136.815919 108.74227 
L 136.918039 108.635661 
L 137.025533 108.49169 
L 137.138402 108.389279 
L 137.245897 108.259261 
L 137.331892 108.157858 
L 137.439387 108.006678 
L 137.530757 107.903487 
L 137.638252 107.774079 
L 137.718873 107.668118 
L 137.826367 107.497174 
L 137.928487 107.387513 
L 138.035981 107.269029 
L 138.111228 107.184277 
L 138.218722 107.022084 
L 138.304718 106.912526 
L 138.412212 106.78177 
L 138.482084 106.678233 
L 138.589578 106.548013 
L 138.686323 106.440242 
L 138.793818 106.308941 
L 138.885188 106.200382 
L 138.992682 106.084656 
L 139.089428 105.975498 
L 139.196922 105.787125 
L 139.320541 105.676567 
L 139.428035 105.462522 
L 139.508656 105.354453 
L 139.616151 105.251332 
L 139.691397 105.147353 
L 139.793517 104.990348 
L 139.879512 104.89936 
L 139.987007 104.754744 
L 140.094501 104.66175 
L 140.201996 104.475239 
L 140.298741 104.374956 
L 140.406235 104.281113 
L 140.486856 104.171475 
L 140.594351 104.038894 
L 140.69647 103.949368 
L 140.803965 103.783278 
L 140.884586 103.682594 
L 140.99208 103.519774 
L 141.088825 103.431796 
L 141.19632 103.294483 
L 141.293065 103.197697 
L 141.395185 103.015646 
L 141.465056 102.918214 
L 141.57255 102.747492 
L 141.658546 102.644502 
L 141.766041 102.498224 
L 141.846661 102.399522 
L 141.954156 102.255468 
L 142.056276 102.14867 
L 142.16377 101.991848 
L 142.249766 101.882789 
L 142.35726 101.75811 
L 142.427132 101.647518 
L 142.534626 101.50276 
L 142.599123 101.405889 
L 142.701243 101.19197 
L 142.835611 101.091402 
L 142.943105 100.862722 
L 143.023726 100.760004 
L 143.131221 100.626328 
L 143.249465 100.526649 
L 143.356959 100.326635 
L 143.459079 100.217871 
L 143.566573 100.064398 
L 143.657944 99.968071 
L 143.765438 99.842523 
L 143.846059 99.73203 
L 143.953554 99.560285 
L 144.034174 99.450041 
L 144.141669 99.3253 
L 144.184667 99.271271 
L 144.292161 99.008316 
L 144.372782 98.908899 
L 144.480277 98.685008 
L 144.539399 98.575768 
L 144.646893 98.453434 
L 144.754388 98.356218 
L 144.861882 98.148011 
L 144.937128 98.040575 
L 145.044623 97.940952 
L 145.130618 97.849699 
L 145.238113 97.64432 
L 145.38323 97.53552 
L 145.490725 97.367128 
L 145.565971 97.25741 
L 145.673466 97.048219 
L 145.759461 96.951356 
L 145.866956 96.822261 
L 145.947577 96.714896 
L 146.055071 96.553891 
L 146.162566 96.465491 
L 146.27006 96.257417 
L 146.356056 96.151516 
L 146.46355 96.002149 
L 146.538796 95.903736 
L 146.630167 95.744161 
L 146.726912 95.636974 
L 146.834406 95.438273 
L 146.888153 95.355847 
L 146.995648 95.221661 
L 147.076269 95.112877 
L 147.183763 94.965619 
L 147.280508 94.85779 
L 147.388003 94.763781 
L 147.495497 94.657101 
L 147.602992 94.475644 
L 147.667489 94.382573 
L 147.774983 94.184802 
L 147.860979 94.076674 
L 147.968473 93.929065 
L 148.02222 93.82911 
L 148.129715 93.618546 
L 148.199586 93.529385 
L 148.307081 93.337386 
L 148.382327 93.226321 
L 148.489821 93.068846 
L 148.538194 92.95841 
L 148.645689 92.795726 
L 148.71556 92.693572 
L 148.823054 92.548161 
L 148.898301 92.439306 
L 149.005795 92.313046 
L 149.064917 92.205146 
L 149.172412 92.074148 
L 149.253032 91.964511 
L 149.360527 91.829662 
L 149.451897 91.726839 
L 149.559392 91.477394 
L 149.645387 91.38031 
L 149.752882 91.16688 
L 149.79588 91.073146 
L 149.903374 90.890323 
L 150.000119 90.780409 
L 150.107614 90.578454 
L 150.215108 90.472752 
L 150.322603 90.325196 
L 150.451596 90.220976 
L 150.559091 90.086187 
L 150.655836 89.984949 
L 150.76333 89.861089 
L 150.811703 89.757388 
L 150.919197 89.603229 
L 151.005193 89.49308 
L 151.112687 89.312308 
L 151.198683 89.209566 
L 151.306177 88.987444 
L 151.35455 88.882415 
L 151.462044 88.671443 
L 151.585663 88.562093 
L 151.693158 88.442221 
L 151.757654 88.333305 
L 151.865149 88.168474 
L 151.978018 88.057927 
L 152.085512 87.901875 
L 152.155384 87.805537 
L 152.262878 87.659737 
L 152.354249 87.550219 
L 152.461743 87.36288 
L 152.536989 87.265867 
L 152.644484 87.078297 
L 152.682107 86.996916 
L 152.789601 86.808878 
L 152.870222 86.703031 
L 152.977717 86.56348 
L 153.047588 86.453697 
L 153.155083 86.286356 
L 153.257203 86.182021 
L 153.364697 86.07079 
L 153.418444 85.963415 
L 153.525939 85.783643 
L 153.611934 85.67682 
L 153.719429 85.5197 
L 153.794675 85.417548 
L 153.90217 85.276655 
L 153.972041 85.165763 
L 154.079535 84.959095 
L 154.208529 84.853161 
L 154.316023 84.66564 
L 154.38052 84.558668 
L 154.488015 84.445902 
L 154.57401 84.337409 
L 154.681505 84.228434 
L 154.783624 84.129892 
L 154.891119 83.888628 
L 154.944866 83.781707 
L 155.052361 83.615842 
L 155.111483 83.516407 
L 155.218977 83.336446 
L 155.278099 83.230886 
L 155.385594 83.044889 
L 155.444716 82.94421 
L 155.55221 82.735704 
L 155.665079 82.631418 
L 155.772574 82.383743 
L 155.858569 82.277341 
L 155.966064 82.091465 
L 156.046685 81.99032 
L 156.154179 81.777034 
L 156.267048 81.66648 
L 156.374543 81.359677 
L 156.460539 81.248758 
L 156.568033 81.11508 
L 156.627155 81.013548 
L 156.73465 80.790597 
L 156.809896 80.724413 
L 156.91739 80.474712 
L 157.014135 80.371645 
L 157.12163 80.172568 
L 157.229124 80.069564 
L 157.336619 79.914699 
L 157.438739 79.808072 
L 157.546233 79.649687 
L 157.626854 79.558871 
L 157.734348 79.414788 
L 157.852592 79.307416 
L 157.960087 79.106839 
L 158.024584 79.00366 
L 158.132078 78.841153 
L 158.212699 78.732335 
L 158.320193 78.660817 
L 158.411564 78.566247 
L 158.519058 78.421019 
L 158.556681 78.325559 
L 158.664176 78.136647 
L 158.760921 78.034091 
L 158.868415 77.864296 
L 158.938287 77.75355 
L 159.045781 77.590708 
L 159.099529 77.483381 
L 159.207023 77.287878 
L 159.26077 77.204882 
L 159.368265 77.013777 
L 159.416637 76.905188 
L 159.518757 76.697918 
L 159.615502 76.590657 
L 159.722997 76.403922 
L 159.803617 76.297946 
L 159.911112 76.115487 
L 159.986358 76.011048 
L 160.093853 75.857562 
L 160.228221 75.756078 
L 160.335715 75.574832 
L 160.43246 75.473622 
L 160.539955 75.375027 
L 160.615201 75.266377 
L 160.722695 75.078435 
L 160.803316 74.96755 
L 160.910811 74.810087 
L 160.996806 74.703329 
L 161.104301 74.518432 
L 161.163423 74.410799 
L 161.270917 74.207971 
L 161.335414 74.100908 
L 161.442909 73.963917 
L 161.523529 73.876198 
L 161.631024 73.70217 
L 161.70627 73.594861 
L 161.813765 73.502359 
L 161.878261 73.414951 
L 161.985756 73.231967 
L 162.044878 73.121705 
L 162.152372 72.997782 
L 162.222244 72.890074 
L 162.329738 72.722941 
L 162.410359 72.617615 
L 162.517854 72.463499 
L 162.587725 72.358755 
L 162.679095 72.164669 
L 162.813463 72.054704 
L 162.920958 71.846723 
L 163.001579 71.760209 
L 163.109073 71.568294 
L 163.162821 71.460017 
L 163.270315 71.264402 
L 163.372435 71.155598 
L 163.479929 70.993767 
L 163.56055 70.882947 
L 163.668045 70.750175 
L 163.743291 70.645342 
L 163.850785 70.482199 
L 163.942156 70.372874 
L 164.04965 70.162997 
L 164.114147 70.063137 
L 164.221641 69.907913 
L 164.323761 69.798415 
L 164.431256 69.638801 
L 164.544125 69.53735 
L 164.651619 69.381149 
L 164.780613 69.273984 
L 164.888107 69.082404 
L 165.022475 68.981325 
L 165.12997 68.727014 
L 165.189092 68.617639 
L 165.296586 68.433913 
L 165.382582 68.324318 
L 165.490076 68.143252 
L 165.581447 68.050855 
L 165.688941 67.874903 
L 165.774937 67.766857 
L 165.866307 67.627367 
L 165.957678 67.526296 
L 166.065172 67.281838 
L 166.167292 67.172132 
L 166.274786 66.954216 
L 166.312409 66.870819 
L 166.419904 66.715683 
L 166.446778 66.642501 
L 166.554272 66.399482 
L 166.602645 66.293178 
L 166.710139 66.167309 
L 166.801509 66.076467 
L 166.909004 65.835233 
L 166.994999 65.725583 
L 167.102494 65.502611 
L 167.215363 65.408515 
L 167.322858 65.158353 
L 167.392729 65.047556 
L 167.500224 64.889318 
L 167.580844 64.78798 
L 167.688339 64.605825 
L 167.747461 64.505868 
L 167.854955 64.324643 
L 167.903328 64.237576 
L 168.010822 63.99959 
L 168.091443 63.889134 
L 168.198938 63.759497 
L 168.24731 63.651414 
L 168.354805 63.436918 
L 168.424676 63.333742 
L 168.532171 63.208712 
L 168.682663 63.104543 
L 168.790158 62.914728 
L 168.833155 62.817033 
L 168.94065 62.647267 
L 169.075018 62.542147 
L 169.182513 62.368088 
L 169.279258 62.260924 
L 169.386752 62.083228 
L 169.435125 61.978867 
L 169.542619 61.777298 
L 169.650114 61.68492 
L 169.757608 61.545897 
L 169.832854 61.454386 
L 169.940349 61.293727 
L 170.026344 61.191331 
L 170.133839 61.10113 
L 170.209085 60.998408 
L 170.311205 60.823145 
L 170.402575 60.715417 
L 170.51007 60.50631 
L 170.606815 60.395991 
L 170.714309 60.291701 
L 170.811054 60.187247 
L 170.918549 59.978143 
L 171.015294 59.868511 
L 171.122788 59.727726 
L 171.251782 59.618445 
L 171.359276 59.460809 
L 171.461396 59.354031 
L 171.56889 59.20713 
L 171.638762 59.104146 
L 171.746256 58.978398 
L 171.826877 58.867357 
L 171.934372 58.714611 
L 171.988119 58.609008 
L 172.095613 58.46498 
L 172.181609 58.366497 
L 172.289104 58.202495 
L 172.36435 58.101985 
L 172.471844 57.952278 
L 172.563215 57.844973 
L 172.670709 57.714103 
L 172.794328 57.606013 
L 172.901822 57.424884 
L 172.993193 57.322026 
L 173.100687 57.148153 
L 173.218931 57.041797 
L 173.326425 56.860758 
L 173.407046 56.757955 
L 173.514541 56.528545 
L 173.579038 56.425335 
L 173.686532 56.278861 
L 173.71878 56.171938 
L 173.826275 56.010377 
L 173.92302 55.899328 
L 174.030514 55.79462 
L 174.100386 55.685736 
L 174.20788 55.479874 
L 174.283127 55.371187 
L 174.390621 55.209851 
L 174.476617 55.11171 
L 174.584111 54.907064 
L 174.686231 54.798411 
L 174.793725 54.562415 
L 174.89047 54.473926 
L 174.997965 54.271227 
L 175.073211 54.181076 
L 175.180706 54.008067 
L 175.272076 53.911596 
L 175.37957 53.719024 
L 175.48169 53.610101 
L 175.589185 53.415439 
L 175.702054 53.31405 
L 175.809548 53.165394 
L 175.86867 53.058469 
L 175.976165 52.887259 
L 176.035287 52.784799 
L 176.142781 52.658501 
L 176.201903 52.551488 
L 176.309398 52.365641 
L 176.395393 52.263577 
L 176.502888 52.101237 
L 176.56201 51.993572 
L 176.669504 51.768674 
L 176.7555 51.664383 
L 176.862994 51.511446 
L 176.911367 51.411164 
L 177.013487 51.299397 
L 177.131731 51.213141 
L 177.239225 51.036814 
L 177.298347 50.92576 
L 177.400467 50.684313 
L 177.464964 50.575535 
L 177.572458 50.429298 
L 177.669203 50.325572 
L 177.776698 50.058018 
L 177.868068 49.947989 
L 177.975563 49.821307 
L 178.040059 49.714014 
L 178.147554 49.502305 
L 178.238924 49.392582 
L 178.346419 49.231413 
L 178.464663 49.133173 
L 178.572157 48.981397 
L 178.625904 48.877606 
L 178.733399 48.599799 
L 178.830144 48.495146 
L 178.937638 48.339732 
L 179.039758 48.232802 
L 179.147253 47.978702 
L 179.243998 47.87038 
L 179.351492 47.681358 
L 179.458987 47.571433 
L 179.566481 47.366392 
L 179.647102 47.265673 
L 179.754596 47.11389 
L 179.862091 47.004145 
L 179.969585 46.864614 
L 180.07708 46.757312 
L 180.184574 46.574491 
L 180.259821 46.465531 
L 180.356566 46.311104 
L 180.469435 46.200736 
L 180.576929 46.066042 
L 180.614552 45.957212 
L 180.722047 45.777663 
L 180.781169 45.670526 
L 180.888663 45.522075 
L 180.958535 45.411841 
L 181.066029 45.204546 
L 181.141276 45.094222 
L 181.24877 44.956641 
L 181.372389 44.853455 
L 181.479883 44.526508 
L 181.576628 44.425176 
L 181.684123 44.271178 
L 181.743245 44.166919 
L 181.850739 44.043257 
L 181.909861 43.93354 
L 182.017356 43.72443 
L 182.081852 43.62588 
L 182.189347 43.411927 
L 182.280717 43.312615 
L 182.377462 43.141105 
L 182.495706 43.030236 
L 182.603201 42.794359 
L 182.673072 42.704144 
L 182.780567 42.530306 
L 182.839689 42.419997 
L 182.947183 42.246397 
L 183.054678 42.14755 
L 183.162172 41.981892 
L 183.237418 41.875603 
L 183.339538 41.772169 
L 183.409409 41.691232 
L 183.516904 41.483401 
L 183.597525 41.373058 
L 183.705019 41.201789 
L 183.764141 41.106533 
L 183.871636 40.973137 
L 183.984505 40.863026 
L 184.092 40.722585 
L 184.140372 40.616986 
L 184.247867 40.423274 
L 184.349986 40.312467 
L 184.457481 40.149742 
L 184.548851 40.038774 
L 184.656346 39.895161 
L 184.758465 39.786659 
L 184.86596 39.615795 
L 184.984204 39.507896 
L 185.091698 39.313819 
L 185.145446 39.208702 
L 185.25294 39.063589 
L 185.398058 38.953566 
L 185.505552 38.779596 
L 185.602297 38.672747 
L 185.709792 38.564057 
L 185.83341 38.470504 
L 185.940905 38.280778 
L 186.032275 38.172722 
L 186.13977 38.035246 
L 186.198892 37.926792 
L 186.306386 37.694154 
L 186.413881 37.586813 
L 186.521375 37.473879 
L 186.607371 37.376784 
L 186.714865 37.205498 
L 186.816985 37.101119 
L 186.92448 36.93579 
L 186.994351 36.826598 
L 187.101846 36.699447 
L 187.166342 36.592779 
L 187.273837 36.436377 
L 187.392081 36.328955 
L 187.499575 36.162769 
L 187.580196 36.054354 
L 187.687691 35.934102 
L 187.784436 35.826236 
L 187.89193 35.622475 
L 187.977926 35.519907 
L 188.08542 35.383907 
L 188.182165 35.28083 
L 188.28966 35.086822 
L 188.413278 34.976378 
L 188.520773 34.859156 
L 188.58527 34.749464 
L 188.692764 34.591158 
L 188.77876 34.483975 
L 188.886254 34.319699 
L 188.956126 34.225033 
L 189.06362 34.043604 
L 189.138866 33.948041 
L 189.246361 33.786846 
L 189.35923 33.688514 
L 189.46135 33.57266 
L 189.579594 33.46425 
L 189.687088 33.258653 
L 189.762334 33.159081 
L 189.869829 32.905338 
L 189.961199 32.795395 
L 190.068694 32.640767 
L 190.154689 32.531153 
L 190.262184 32.379668 
L 190.380428 32.277438 
L 190.487922 32.121394 
L 190.547044 32.010904 
L 190.654539 31.805603 
L 190.831905 31.699914 
L 190.939399 31.562681 
L 191.025395 31.458428 
L 191.132889 31.29327 
L 191.218885 31.189662 
L 191.326379 31.016904 
L 191.380127 30.908703 
L 191.487621 30.788358 
L 191.595116 30.679055 
L 191.70261 30.509437 
L 191.815479 30.399472 
L 191.922974 30.249778 
L 192.003595 30.140007 
L 192.111089 29.986596 
L 192.277706 29.887486 
L 192.3852 29.719559 
L 192.465821 29.620253 
L 192.573315 29.47367 
L 192.637812 29.366919 
L 192.745307 29.092252 
L 192.842052 28.98187 
L 192.949546 28.81161 
L 193.057041 28.707758 
L 193.126912 28.624992 
L 193.250531 28.522868 
L 193.358025 28.327586 
L 193.427897 28.219552 
L 193.535391 28.142158 
L 193.653635 28.046596 
L 193.76113 27.891816 
L 193.879374 27.783025 
L 193.986868 27.701522 
L 194.078238 27.608087 
L 194.185733 27.450955 
L 194.271729 27.350863 
L 194.379223 27.247161 
L 194.470593 27.140271 
L 194.578088 26.960463 
L 194.680208 26.859419 
L 194.787702 26.746703 
L 194.884447 26.647601 
L 194.991942 26.508932 
L 195.072563 26.398318 
L 195.180057 26.281483 
L 195.266053 26.190307 
L 195.373547 25.989534 
L 195.459543 25.890631 
L 195.567037 25.700845 
L 195.679907 25.596281 
L 195.787401 25.467111 
L 195.878771 25.369861 
L 195.986266 25.220741 
L 196.099135 25.116458 
L 196.20663 25.001383 
L 196.298 24.89427 
L 196.405494 24.760192 
L 196.480741 24.656672 
L 196.588235 24.552613 
L 196.711854 24.44253 
L 196.819348 24.3003 
L 196.899969 24.219549 
L 196.996714 24.095227 
L 197.093459 23.984946 
L 197.200954 23.798129 
L 197.303073 23.689539 
L 197.410568 23.598826 
L 197.507313 23.496117 
L 197.614807 23.336455 
L 197.690054 23.237266 
L 197.797548 23.131096 
L 197.878169 23.033597 
L 197.985664 22.868935 
L 198.082409 22.765951 
L 198.189903 22.618102 
L 198.249025 22.509244 
L 198.35652 22.400563 
L 198.485513 22.291054 
L 198.593007 22.133481 
L 198.657504 22.033244 
L 198.764999 21.902594 
L 198.899367 21.794774 
L 199.006861 21.672377 
L 199.082107 21.567655 
L 199.189602 21.435375 
L 199.286347 21.328601 
L 199.393841 21.194411 
L 199.495961 21.090481 
L 199.603456 20.970422 
L 199.689451 20.861145 
L 199.796946 20.714808 
L 199.947438 20.61273 
L 200.054933 20.493122 
L 200.205425 20.388698 
L 200.312919 20.231428 
L 200.40429 20.121321 
L 200.490285 20.027467 
L 200.592405 19.922154 
L 200.6999 19.793952 
L 200.818144 19.688756 
L 200.925638 19.61907 
L 201.054631 19.514808 
L 201.162126 19.431895 
L 201.264246 19.32658 
L 201.366366 19.231574 
L 201.500734 19.12437 
L 201.608228 19.069824 
L 201.737222 18.960056 
L 201.844716 18.813053 
L 202.000583 18.719469 
L 202.108078 18.609734 
L 202.231696 18.501642 
L 202.339191 18.398465 
L 202.457435 18.289531 
L 202.564929 18.221896 
L 202.683173 18.117672 
L 202.790668 18.006315 
L 202.876663 17.902727 
L 202.978783 17.833356 
L 203.150774 17.735461 
L 203.258269 17.618196 
L 203.365763 17.509583 
L 203.473258 17.402607 
L 203.704371 17.292492 
L 203.811865 17.202125 
L 203.962358 17.091725 
L 204.069852 16.942539 
L 204.31709 16.832816 
L 204.424584 16.739525 
L 204.542828 16.629115 
L 204.650322 16.478005 
L 204.929808 16.367491 
L 205.037303 16.285312 
L 205.187795 16.183293 
L 205.295289 16.085408 
L 205.617773 15.975922 
L 205.714518 15.927566 
L 205.999378 15.832512 
L 206.106873 15.737022 
L 206.284239 15.628825 
L 206.391733 15.546804 
L 206.74109 15.439582 
L 206.848585 15.3416 
L 207.0367 15.231058 
L 207.144195 15.132741 
L 207.450554 15.025555 
L 207.461304 15.019359 
L 207.789162 14.909137 
L 207.896656 14.816999 
L 208.122395 14.71202 
L 208.176142 14.682451 
L 208.665242 14.575414 
L 208.670617 14.566556 
L 209.159717 14.456317 
L 209.267211 14.372889 
L 209.503699 14.266067 
L 209.611194 14.203246 
L 210.127167 14.094613 
L 210.234662 14.021787 
L 210.428152 13.914097 
L 210.535646 13.841602 
L 210.750635 13.733912 
L 210.85813 13.679174 
L 212.427549 13.570797 
L 212.535044 13.495517 
L 212.884401 13.386513 
L 212.991896 13.324177 
L 214.95367 13.21375 
L 214.95367 13.212444 
L 217.108935 13.103665 
L 217.216429 13.053465 
L 217.485166 12.944372 
L 217.59266 12.890208 
L 217.845272 12.78014 
L 217.88827 4.594579 
L 217.88827 4.594579 
" clip-path="url(#p34e97b345c)" style="fill: none; stroke-dasharray: 10,2; stroke-dashoffset: 0; stroke: #ac7726; stroke-width: 2"/>
   </g>
   <g id="patch_3">
    <path d="M 54.625625 176.013895 
L 54.625625 12.75125 
" style="fill: none; stroke: #000000; stroke-width: 0.8; stroke-linejoin: miter; stroke-linecap: square"/>
   </g>
   <g id="patch_4">
    <path d="M 217.88827 176.013895 
L 217.88827 12.75125 
" style="fill: none; stroke: #000000; stroke-width: 0.8; stroke-linejoin: miter; stroke-linecap: square"/>
   </g>
   <g id="patch_5">
    <path d="M 54.625625 176.013895 
L 217.88827 176.013895 
" style="fill: none; stroke: #000000; stroke-width: 0.8; stroke-linejoin: miter; stroke-linecap: square"/>
   </g>
   <g id="patch_6">
    <path d="M 54.625625 12.75125 
L 217.88827 12.75125 
" style="fill: none; stroke: #000000; stroke-width: 0.8; stroke-linejoin: miter; stroke-linecap: square"/>
   </g>
   <g id="legend_1">
    <g id="patch_7">
     <path d="M 65.825625 70.15625 
L 180.933125 70.15625 
Q 184.133125 70.15625 184.133125 66.95625 
L 184.133125 23.95125 
Q 184.133125 20.75125 180.933125 20.75125 
L 65.825625 20.75125 
Q 62.625625 20.75125 62.625625 23.95125 
L 62.625625 66.95625 
Q 62.625625 70.15625 65.825625 70.15625 
z
" style="fill: #ffffff; opacity: 0.8; stroke: #cccccc; stroke-linejoin: miter"/>
    </g>
    <g id="line2d_12">
     <path d="M 69.025625 32.75125 
L 85.025625 32.75125 
L 85.025625 32.75125 
L 101.025625 32.75125 
L 101.025625 32.75125 
" style="fill: none; stroke: #67c7d5; stroke-width: 2; stroke-linecap: square"/>
    </g>
    <g id="text_12">
     <!-- ATL09 -->
     <g transform="translate(113.825625 38.35125) scale(0.16 -0.16)">
      <defs>
       <path id="CMUSerif-Roman-41" d="M 206 0 
L 206 197 
Q 775 209 922 628 
L 2247 4453 
Q 2272 4531 2300 4556 
Q 2328 4581 2400 4581 
Q 2438 4581 2461 4575 
Q 2484 4569 2500 4547 
Q 2516 4525 2522 4512 
Q 2528 4500 2547 4453 
L 3928 453 
Q 3978 294 4081 245 
Q 4184 197 4475 197 
L 4588 197 
L 4588 0 
Q 4184 19 3750 19 
Q 3059 19 2828 0 
L 2828 197 
Q 3359 197 3359 391 
Q 3359 403 3341 481 
L 3003 1459 
L 1422 1459 
L 1125 622 
Q 1113 597 1113 525 
Q 1113 391 1238 294 
Q 1363 197 1594 197 
L 1594 0 
Q 978 19 856 19 
Q 647 19 206 0 
z
M 1491 1656 
L 2931 1656 
L 2209 3738 
L 1491 1656 
z
" transform="scale(0.015625)"/>
       <path id="CMUSerif-Roman-54" d="M 231 2894 
L 353 4331 
L 4263 4331 
L 4384 2894 
L 4225 2894 
Q 4200 3181 4176 3347 
Q 4153 3513 4098 3670 
Q 4044 3828 3976 3904 
Q 3909 3981 3781 4042 
Q 3653 4103 3487 4118 
Q 3322 4134 3072 4134 
Q 2778 4134 2706 4122 
Q 2628 4103 2609 4048 
Q 2591 3994 2591 3878 
L 2591 506 
Q 2591 378 2617 326 
Q 2644 275 2791 236 
Q 2938 197 3263 197 
L 3519 197 
L 3519 0 
Q 3256 19 2303 19 
Q 1356 19 1094 0 
L 1094 197 
L 1350 197 
Q 1675 197 1823 236 
Q 1972 275 1997 326 
Q 2022 378 2022 506 
L 2022 3878 
Q 2022 3969 2015 4006 
Q 2009 4044 1981 4076 
Q 1953 4109 1889 4121 
Q 1825 4134 1544 4134 
Q 1294 4134 1126 4118 
Q 959 4103 831 4042 
Q 703 3981 636 3904 
Q 569 3828 514 3670 
Q 459 3513 437 3347 
Q 416 3181 391 2894 
L 231 2894 
z
" transform="scale(0.015625)"/>
       <path id="CMUSerif-Roman-4c" d="M 213 0 
L 213 197 
L 366 197 
Q 713 197 792 255 
Q 872 313 872 500 
L 872 3872 
Q 872 4056 790 4114 
Q 709 4172 366 4172 
L 213 4172 
L 213 4372 
Q 438 4353 1184 4353 
Q 2028 4353 2259 4372 
L 2259 4172 
L 2047 4172 
Q 1753 4172 1618 4134 
Q 1484 4097 1462 4045 
Q 1441 3994 1441 3866 
L 1441 453 
Q 1441 288 1489 242 
Q 1538 197 1753 197 
L 2278 197 
Q 2603 197 2837 294 
Q 3072 391 3197 512 
Q 3322 634 3405 864 
Q 3488 1094 3514 1241 
Q 3541 1388 3566 1650 
L 3725 1650 
L 3547 0 
L 213 0 
z
" transform="scale(0.015625)"/>
       <path id="CMUSerif-Roman-39" d="M 269 2822 
Q 269 3163 369 3395 
Q 469 3628 678 3859 
Q 1063 4263 1619 4263 
Q 1856 4263 2067 4163 
Q 2278 4063 2479 3836 
Q 2681 3609 2803 3164 
Q 2925 2719 2925 2106 
Q 2925 1116 2445 487 
Q 1966 -141 1319 -141 
Q 909 -141 668 45 
Q 428 231 428 550 
Q 428 716 522 786 
Q 616 856 722 856 
Q 838 856 928 779 
Q 1019 703 1019 563 
Q 1019 447 945 358 
Q 872 269 684 269 
Q 869 38 1313 38 
Q 1472 38 1631 111 
Q 1791 184 1964 364 
Q 2138 544 2244 922 
Q 2350 1300 2350 1831 
L 2350 2034 
Q 2094 1394 1550 1394 
Q 1013 1394 641 1806 
Q 269 2219 269 2822 
z
M 844 2816 
Q 844 2181 959 1947 
Q 1156 1544 1556 1544 
Q 1947 1544 2142 1892 
Q 2338 2241 2338 2694 
Q 2338 3322 2234 3597 
Q 2044 4103 1620 4103 
Q 1197 4103 978 3700 
Q 844 3463 844 2816 
z
" transform="scale(0.015625)"/>
      </defs>
      <use xlink:href="#CMUSerif-Roman-41"/>
      <use xlink:href="#CMUSerif-Roman-54" transform="translate(75 0)"/>
      <use xlink:href="#CMUSerif-Roman-4c" transform="translate(147.167969 0)"/>
      <use xlink:href="#CMUSerif-Roman-30" transform="translate(209.667969 0)"/>
      <use xlink:href="#CMUSerif-Roman-39" transform="translate(259.667969 0)"/>
     </g>
    </g>
    <g id="line2d_13">
     <path d="M 69.025625 55.05375 
L 85.025625 55.05375 
L 85.025625 55.05375 
L 101.025625 55.05375 
L 101.025625 55.05375 
" style="fill: none; stroke-dasharray: 10,2; stroke-dashoffset: 0; stroke: #ac7726; stroke-width: 2"/>
    </g>
    <g id="text_13">
     <!-- Cloudnet -->
     <g transform="translate(113.825625 60.65375) scale(0.16 -0.16)">
      <defs>
       <path id="CMUSerif-Roman-6c" d="M 213 0 
L 213 197 
Q 553 197 631 239 
Q 709 281 709 488 
L 709 3816 
Q 709 4053 626 4112 
Q 544 4172 213 4172 
L 213 4372 
L 1131 4441 
L 1131 488 
Q 1131 281 1212 239 
Q 1294 197 1631 197 
L 1631 0 
Q 1553 0 1390 6 
Q 1228 13 1109 16 
Q 991 19 922 19 
Q 847 19 213 0 
z
" transform="scale(0.015625)"/>
       <path id="CMUSerif-Roman-6f" d="M 601 345 
Q 178 763 178 1370 
Q 178 1978 592 2423 
Q 1006 2869 1600 2869 
Q 2181 2869 2598 2426 
Q 3016 1984 3016 1369 
Q 3016 766 2595 347 
Q 2175 -72 1594 -72 
Q 1025 -72 601 345 
z
M 709 1422 
Q 709 800 872 519 
Q 1122 91 1600 91 
Q 1838 91 2036 219 
Q 2234 347 2344 563 
Q 2484 844 2484 1422 
Q 2484 2038 2316 2309 
Q 2066 2725 1594 2725 
Q 1388 2725 1186 2617 
Q 984 2509 863 2297 
Q 709 2016 709 1422 
z
" transform="scale(0.015625)"/>
       <path id="CMUSerif-Roman-75" d="M 206 2559 
L 206 2759 
L 1147 2828 
L 1147 703 
Q 1147 550 1159 461 
Q 1172 372 1223 269 
Q 1275 166 1395 119 
Q 1516 72 1709 72 
Q 2056 72 2270 356 
Q 2484 641 2484 1063 
L 2484 2203 
Q 2484 2441 2400 2500 
Q 2316 2559 1984 2559 
L 1984 2759 
L 2925 2828 
L 2925 556 
Q 2925 319 3008 258 
Q 3091 197 3425 197 
L 3425 0 
L 2503 -72 
L 2503 506 
Q 2234 -69 1678 -72 
Q 1397 -72 1205 0 
Q 1013 72 916 161 
Q 819 250 767 422 
Q 716 594 709 700 
Q 703 806 703 1013 
L 703 1972 
Q 703 2406 640 2482 
Q 578 2559 206 2559 
z
" transform="scale(0.015625)"/>
       <path id="CMUSerif-Roman-64" d="M 219 1375 
Q 219 1984 644 2406 
Q 1069 2828 1644 2828 
Q 2131 2828 2450 2431 
L 2450 3816 
Q 2450 4053 2367 4112 
Q 2284 4172 1953 4172 
L 1953 4372 
L 2875 4441 
L 2875 556 
Q 2875 319 2958 258 
Q 3041 197 3372 197 
L 3372 0 
L 2431 -72 
L 2431 353 
Q 2100 -69 1575 -72 
Q 1025 -72 622 350 
Q 219 772 219 1375 
z
M 750 1369 
Q 750 775 934 481 
Q 1191 72 1606 72 
Q 2081 72 2363 519 
Q 2434 628 2431 756 
L 2431 2069 
Q 2431 2197 2363 2303 
Q 2100 2688 1672 2688 
Q 1225 2688 947 2278 
Q 750 1972 750 1369 
z
" transform="scale(0.015625)"/>
       <path id="CMUSerif-Roman-6e" d="M 206 0 
L 206 197 
Q 547 197 625 239 
Q 703 281 703 488 
L 703 2203 
Q 703 2441 620 2500 
Q 538 2559 206 2559 
L 206 2759 
L 1106 2828 
L 1106 2156 
Q 1406 2828 2053 2828 
Q 2534 2828 2725 2591 
Q 2866 2431 2895 2253 
Q 2925 2075 2925 1613 
L 2925 391 
Q 2931 256 3034 226 
Q 3138 197 3425 197 
L 3425 0 
Q 2772 19 2706 19 
Q 2656 19 1984 0 
L 1984 197 
Q 2325 197 2404 239 
Q 2484 281 2484 488 
L 2484 1978 
Q 2484 2303 2384 2495 
Q 2284 2688 2009 2688 
Q 1678 2688 1412 2409 
Q 1147 2131 1147 1663 
L 1147 488 
Q 1147 281 1226 239 
Q 1306 197 1644 197 
L 1644 0 
Q 991 19 928 19 
Q 878 19 206 0 
z
" transform="scale(0.015625)"/>
       <path id="CMUSerif-Roman-65" d="M 178 1409 
Q 178 2013 565 2441 
Q 953 2869 1509 2869 
Q 2072 2869 2364 2503 
Q 2656 2138 2656 1613 
Q 2656 1516 2631 1497 
Q 2606 1478 2497 1478 
L 709 1478 
Q 709 825 903 519 
Q 1172 91 1625 91 
Q 1688 91 1763 103 
Q 1838 116 1991 170 
Q 2144 225 2278 372 
Q 2413 519 2491 750 
Q 2509 841 2572 838 
Q 2656 838 2656 763 
Q 2656 706 2595 579 
Q 2534 453 2418 303 
Q 2303 153 2079 40 
Q 1856 -72 1588 -72 
Q 1025 -72 601 354 
Q 178 781 178 1409 
z
M 716 1613 
L 2234 1613 
Q 2234 1747 2211 1897 
Q 2188 2047 2120 2255 
Q 2053 2463 1897 2594 
Q 1741 2725 1509 2725 
Q 1406 2725 1295 2681 
Q 1184 2638 1050 2531 
Q 916 2425 822 2184 
Q 728 1944 716 1613 
z
" transform="scale(0.015625)"/>
       <path id="CMUSerif-Roman-74" d="M 122 2559 
L 122 2700 
Q 416 2713 611 2920 
Q 806 3128 873 3384 
Q 941 3641 947 3938 
L 1106 3938 
L 1106 2759 
L 2022 2759 
L 2022 2559 
L 1106 2559 
L 1106 781 
Q 1106 91 1538 91 
Q 1722 91 1844 280 
Q 1966 469 1966 806 
L 1966 1159 
L 2125 1159 
L 2125 794 
Q 2125 447 1965 187 
Q 1806 -72 1491 -72 
Q 1375 -72 1261 -42 
Q 1147 -13 998 64 
Q 850 141 758 330 
Q 666 519 666 794 
L 666 2559 
L 122 2559 
z
" transform="scale(0.015625)"/>
      </defs>
      <use xlink:href="#CMUSerif-Roman-43"/>
      <use xlink:href="#CMUSerif-Roman-6c" transform="translate(72.167969 0)"/>
      <use xlink:href="#CMUSerif-Roman-6f" transform="translate(99.853516 0)"/>
      <use xlink:href="#CMUSerif-Roman-75" transform="translate(149.853516 0)"/>
      <use xlink:href="#CMUSerif-Roman-64" transform="translate(205.322266 0)"/>
      <use xlink:href="#CMUSerif-Roman-6e" transform="translate(260.791016 0)"/>
      <use xlink:href="#CMUSerif-Roman-65" transform="translate(316.259766 0)"/>
      <use xlink:href="#CMUSerif-Roman-74" transform="translate(360.644531 0)"/>
     </g>
    </g>
   </g>
  </g>
 </g>
 <defs>
  <clipPath id="p34e97b345c">
   <rect x="54.625625" y="12.75125" width="163.262645" height="163.262645"/>
  </clipPath>
 </defs>
</svg>
